<?xml version="1.0" standalone="no"?>
<!DOCTYPE svg PUBLIC "-//W3C//DTD SVG 20010904//EN"
 "http://www.w3.org/TR/2001/REC-SVG-20010904/DTD/svg10.dtd">
<svg version="1.0" xmlns="http://www.w3.org/2000/svg"
 width="500.000000pt" height="500.000000pt" viewBox="0 0 500.000000 500.000000"
 preserveAspectRatio="xMidYMid meet">
<metadata>
Created by potrace 1.11, written by Peter Selinger 2001-2013
</metadata>
<g transform="translate(0.000000,500.000000) scale(0.100000,-0.100000)"
fill="#000000" stroke="none">
<path d="M2327 4992 c-12 -2 -17 -14 -18 -35 -2 -106 -26 -202 -62 -249 -65
-84 -152 -110 -348 -104 -130 4 -232 12 -294 22 -65 10 -353 13 -400 3 -27 -5
-57 -11 -65 -13 -115 -23 -261 -101 -335 -180 -103 -109 -179 -260 -210 -421
-11 -55 -18 -255 -9 -256 78 -6 367 -2 370 6 1 6 5 46 8 90 11 174 78 290 201
344 53 23 177 42 250 37 73 -5 216 -17 248 -21 414 -50 668 15 811 208 l28 39
18 -29 c23 -38 97 -111 140 -138 99 -61 234 -94 405 -97 51 -1 239 10 272 16
34 7 178 18 258 21 285 10 431 -119 440 -389 2 -43 7 -81 13 -85 14 -8 361 -6
369 3 8 7 5 138 -2 178 -3 13 -7 43 -10 68 -6 51 -34 144 -64 212 -90 209
-280 357 -517 402 -74 14 -316 15 -424 2 -222 -27 -452 -28 -525 -3 -121 41
-161 107 -181 302 -3 33 -8 62 -9 63 -5 5 -336 8 -358 4z"/>
<path d="M1200 2915 l1 -340 173 -340 173 -340 158 0 c86 0 159 3 161 7 2 3
-30 77 -72 165 -206 426 -244 506 -244 509 0 2 73 4 163 4 l162 0 -1 328 c-1
180 -2 332 -3 337 -1 7 -118 10 -336 10 l-335 0 0 -340z"/>
<path d="M3309 3245 c0 -12 0 -646 0 -657 1 -5 73 -8 161 -8 88 0 160 -2 160
-4 0 -5 -24 -55 -192 -406 -85 -176 -128 -269 -128 -272 0 -2 73 -4 163 -3
l162 0 173 342 172 343 -2 337 -3 338 -332 0 c-218 0 -333 -3 -334 -10z"/>
<path d="M579 1011 c-13 -338 110 -630 341 -813 61 -49 179 -111 270 -142 158
-55 145 -54 1325 -52 600 1 1108 5 1130 9 361 68 604 271 717 597 9 25 19 59
23 75 4 17 9 39 11 50 10 43 14 74 20 186 l6 116 -178 1 c-99 0 -186 -1 -195
-4 -11 -3 -15 -17 -14 -52 4 -237 -101 -431 -282 -518 -133 -64 -108 -63
-1263 -63 -1157 0 -1123 -2 -1256 65 -173 86 -268 255 -275 489 -2 88 13 82
-194 82 l-185 1 -1 -27z"/>
</g>
</svg>
