<?xml version="1.0" encoding="utf-8"?>
<!-- Generator: Adobe Illustrator 22.1.0, SVG Export Plug-In . SVG Version: 6.00 Build 0)  -->
<svg version="1.1" id="Layer_1" xmlns="http://www.w3.org/2000/svg" xmlns:xlink="http://www.w3.org/1999/xlink" x="0px" y="0px"
	 viewBox="0 0 512 512" style="enable-background:new 0 0 512 512;" xml:space="preserve">
<style type="text/css">
	.st0{fill:#828282;}
</style>
<path class="st0" d="M256,504v-96.1c101.8,0,180.8-100.9,141.7-208c-14.3-39.6-46.1-71.4-85.8-85.7
	c-107.1-38.8-208.1,39.9-208.1,141.7H8C8,93.7,164.9-32.8,335,20.3c74.2,23.3,133.6,82.4,156.6,156.6C544.8,347.2,418.6,504,256,504
	z M256.3,312.6h-95.6v95.6h95.6V312.6z M160.7,408.2H87v73.6h73.7L160.7,408.2L160.7,408.2z M87,346.6H25.4v61.6H87V346.6z"/>
</svg>
