<?xml version="1.0" encoding="UTF-8" standalone="no"?><!DOCTYPE svg PUBLIC "-//W3C//DTD SVG 1.1//EN" "http://www.w3.org/Graphics/SVG/1.1/DTD/svg11.dtd"><svg width="100%" height="100%" viewBox="0 0 842 1191" version="1.1" xmlns="http://www.w3.org/2000/svg" xmlns:xlink="http://www.w3.org/1999/xlink" xml:space="preserve" xmlns:serif="http://www.serif.com/" style="fill-rule:evenodd;clip-rule:evenodd;stroke-linejoin:round;stroke-miterlimit:2;"><g id="Layer-1" serif:id="Layer 1"><g><path d="M137.522,472.994c-7.26,2.371 -15.286,3.977 -19.263,9.631c3.211,0.292 4.852,2.153 7.881,2.627c4.633,-3.247 9.339,-6.421 11.382,-12.258m12.258,19.263c1.314,-6.567 10.325,-10.07 9.632,-15.761c-5.181,5.619 -13.17,8.428 -17.512,14.885c3.393,-0.474 4.268,1.569 7.88,0.876m20.285,-75.556c-1.35,-5.655 -2.043,-11.967 -2.627,-18.388c-5.144,-8.5 -12.951,-18.314 -15.76,-30.645c-2.737,-11.966 1.86,-25.392 0.875,-38.526c-1.423,-19.19 -5.91,-38.161 2.627,-51.66c-15.177,-5.837 -29.405,-12.622 -42.904,-20.138c-2.554,-16.782 -2.663,-33.09 -1.751,-48.157c-0.183,-0.693 -0.73,-1.022 -1.751,-0.876c-13.754,9.267 -27.727,16.855 -28.019,36.775c-0.292,19.08 5.655,39.146 11.383,59.54c5.436,19.372 9.631,38.854 18.387,54.286c6.64,11.711 16.636,24.188 25.392,33.272c10.142,10.581 21.087,21.416 34.148,24.517m6.859,77.307c-0.949,-7.078 7.478,-9.413 5.253,-14.885c-4.888,5.618 -14.593,6.421 -16.636,14.885l11.383,0Zm-0.73,-48.632c2.663,1.715 9.96,2.481 12.258,1.751c-4.122,-7.259 -10.251,-12.55 -13.134,-21.013c-11.747,-1.533 -18.715,-11.128 -28.894,-13.135c-11.747,-2.334 -30.39,4.561 -40.277,11.383c-11.492,7.917 -19.847,19.956 -25.392,28.895c8.099,11.163 20.905,17.621 32.397,25.392c10.799,-2.627 18.898,-7.954 29.77,-10.508c-6.932,-7.661 -23.021,-6.165 -24.517,-19.262c15.36,-7.698 36.885,-13.864 56.913,-14.01c-0.328,4.123 0.292,7.297 0.876,10.507m16.49,25.502c1.861,9.996 -10.033,13.134 -11.382,22.765c8.719,-0.584 15.687,-2.992 22.765,-5.253c-5.035,-13.353 -11.383,-25.393 -18.387,-36.775c-4.999,0.62 -7.808,-0.949 -12.259,-0.876c-1.496,-2.882 -2.773,-5.983 -2.627,-10.507c-15.213,0 -35.716,5.108 -49.032,11.383c4.888,8.245 15.322,10.945 25.392,14.009c-0.292,-3.21 1.349,-4.487 3.502,-5.253c1.605,1.897 0.584,6.421 0.876,9.631c-3.357,-3.32 -4.123,-1.094 -7.881,-1.751c-0.328,10.471 -8.683,12.915 -13.133,19.263c1.386,1.532 4.706,1.131 6.129,2.626c11.71,-6.712 22.364,-19.08 35.899,-21.013c-3.758,10.543 -14.63,13.972 -18.388,24.516c3.576,-0.073 7.187,-0.182 9.632,0.875l0,-5.253c10.434,-5.326 18.023,-13.499 28.894,-18.387m189.638,336.152c-1.752,-3.794 -3.649,-7.443 -5.254,-11.382c-4.524,0.729 -10.361,0.145 -12.258,3.502c4.414,5.582 10.142,6.858 17.512,7.88m0,-12.258c0.109,8.245 3.247,12.368 10.507,11.383c-1.533,-4.597 -3.648,-8.611 -6.129,-12.259c0.146,1.897 -3.101,0.401 -4.378,0.876m27.143,8.756c0.146,-4.816 -2.7,-6.64 -2.627,-11.383c-4.925,0.329 -9.412,1.095 -14.009,1.751c-1.934,7.771 5.217,6.458 6.129,11.383c4.414,0.329 7.625,-0.547 10.507,-1.751m-1.751,77.672c11.82,-17.184 37.176,-32.725 58.664,-31.522c-1.131,-2.371 -1.606,-5.399 -4.378,-6.129c-22.474,5.546 -43.743,12.295 -64.793,19.263c-9.048,23.678 -22.364,45.859 -23.641,75.301c-0.657,14.703 -0.876,30.317 -0.876,46.406c0.037,36.848 -8.975,58.153 -33.272,75.301c-14.229,10.032 -34.549,20.94 -55.162,20.137c-20.649,-0.801 -47.282,-13.716 -60.416,-27.142c-11.637,-11.93 -19.518,-30.792 -21.889,-48.157c-5.874,-43.306 22.729,-74.717 60.415,-75.301c4.159,3.429 -0.583,15.761 3.503,19.262c14.884,-6.42 28.967,-13.644 44.654,-19.262c-9.996,-15.396 -30.682,-20.102 -46.405,-29.77c0.547,7.041 4.925,10.251 4.378,18.387c-16.126,1.971 -35.79,3.284 -45.531,14.01c-13.426,16.745 -25.538,38.745 -25.392,63.918c0.255,53.191 35.571,75.227 75.301,89.309c9.084,3.211 21.05,6.129 29.769,5.254c15.177,-1.532 32.579,-13.936 42.904,-20.138c4.743,-2.846 10.288,-5.217 14.01,-7.881c20.32,-14.557 33.6,-44.108 31.521,-72.673c-1.569,-21.489 -5.254,-49.107 -1.752,-70.047c2.08,-12.404 11.93,-29.113 18.388,-38.526m100.035,212.293c8.356,-25.976 12.843,-55.636 7.881,-88.434c-0.183,-0.693 -0.73,-1.022 -1.751,-0.876c-9.267,9.157 -31.667,8.354 -42.028,0.876c0.912,23.933 2.188,50.492 1.751,76.176c8.537,-7.224 8.062,-23.458 15.76,-31.522c5.035,2.445 3.721,8.647 5.253,13.134c3.539,10.398 9.157,21.124 13.134,30.646m5.546,-96.059c0.365,-6.166 9.376,-7.005 6.129,-14.01c-8.464,4.634 -22.182,7.37 -32.397,5.254c-3.612,-4.451 -7.77,-8.136 -14.009,-3.503c-0.365,5.035 4.341,4.999 3.503,10.508c7.806,6.713 26.814,6.676 36.774,1.751m19.628,-213.169c0.072,-3.283 0.984,-2.48 0,-5.254c-42.649,3.977 -82.561,7.881 -121.707,12.259c-0.365,4.45 1.35,6.822 2.627,9.631c33.163,-7.151 65.231,-12.039 100.692,-14.009c5.728,-0.329 13.937,1.459 18.388,-2.627m-18.789,194.526c22.473,-34.768 26.961,-98.394 25.392,-148.849c-23.677,2.298 -44.728,7.223 -66.545,11.382c15.141,36.045 21.708,94.563 14.01,140.094c9.522,4.597 17.475,1.678 27.143,-2.627m31.923,-194.526l0,-5.254c-3.649,-3.976 -11.602,-1.715 -8.756,6.129c2.262,1.022 6.785,-0.948 8.756,-0.875m12.257,-0.876c0.913,-2.298 1.059,-5.362 0.876,-8.756c-4.232,0.292 -4.415,0.694 -9.631,0.876l0,8.756c3.503,0.292 4.852,-1.569 8.755,-0.876m4.378,-1.751c8.209,0.073 18.461,-6.311 15.761,-11.383c-3.903,1.824 -9.303,1.606 -14.885,3.503c0.255,3.174 -0.146,5.692 -0.876,7.88m15.433,37.285c7.88,-10.543 8.317,-28.383 -0.876,-37.65c-2.371,1.533 -4.451,3.612 -7.005,4.378c-17.22,5.29 -41.48,3.539 -61.291,5.254c-2.846,0.256 -5.982,2.225 -8.756,2.627c-13.607,2.006 -27.873,1.24 -42.028,3.502c-14.994,2.408 -29.441,5.691 -42.903,7.004c-2.481,1.314 -4.306,3.284 -7.005,4.378c-8.975,0.402 -19.737,4.123 -30.646,3.503c-4.122,-0.256 -8.573,-3.137 -12.258,-2.627c-6.02,0.803 -16.125,9.45 -16.636,14.885c-0.511,5.582 6.895,17.548 10.507,23.641c4.707,7.917 9.376,15.031 15.761,19.262c59.247,-24.479 128.565,-38.962 203.136,-48.157m0.912,5.984c15.688,-3.065 21.451,-31.558 11.346,-44.656c-0.766,3.285 -4.852,3.321 -5.253,7.005c8.062,14.083 -3.649,28.968 -6.093,37.651m34.622,-26.085c-3.174,-4.269 -5.655,-7.589 -2.627,-14.01c-1.897,-5.29 -9.412,-9.084 -16.635,-6.129c6.274,16.818 1.312,38.781 -7.881,48.121c-3.357,2.226 -9.486,1.642 -8.756,7.916c22.255,1.824 35.351,-13.097 35.899,-35.898m6.64,-138.635c5.144,-19.811 12.039,-38.161 -1.751,-49.872c-19.774,0.584 -38.745,1.131 -60.416,2.627c-27.727,1.897 -53.082,4.743 -76.176,6.129c-45.093,2.736 -96.752,12.44 -140.094,20.138c-12.878,2.299 -45.421,1.533 -53.41,9.632c-10.836,11.018 2.079,34.658 7.88,46.405c5.983,12.077 11.784,20.176 18.387,31.522c6.458,11.091 10.361,21.598 16.636,32.396c5.509,9.413 10.653,27.764 16.636,33.273c-0.802,-0.73 4.488,0.511 3.503,2.591c11.784,1.677 19.482,-3.503 25.392,-4.342c7.223,-1.022 15.104,-0.73 22.765,-1.751c55.454,-7.442 114.811,-10.325 164.611,-20.139c8.427,-5.874 20.612,-7.99 28.893,-14.046c11.967,-24.626 19.155,-63.626 27.144,-94.563m23.969,-196.715c2.517,-0.11 5.728,0.474 7.004,-0.876c-3.173,-3.831 -7.114,-6.895 -11.382,-9.631c-0.219,5.18 3.94,5.983 4.378,10.507m25.83,297.59c5.399,-18.169 5.18,-41.591 2.627,-59.54c-2.59,-18.241 -8.391,-41.445 -15.761,-59.54c-7.406,-18.168 -17.074,-39.183 -26.268,-55.162c-9.668,-16.819 -18.897,-26.778 -28.018,-39.401c2.699,-1.97 9.011,-0.329 10.507,-3.503c-6.859,-3.648 -17.84,-3.174 -21.014,-10.507c2.188,-1.605 6.968,-0.62 7.88,-3.502c-19.847,0.292 -40.095,-3.466 -54.286,-11.383c-17.987,12.514 -32.871,32.324 -53.411,44.655c-13.9,8.318 -31.777,19.92 -50.785,20.139c-53.155,0.583 -99.342,-19.592 -144.471,-34.148c-9.376,14.556 -27.362,20.503 -43.78,28.019c4.744,0.511 12.186,-1.678 13.134,2.626c-3.356,8.319 -13.279,10.07 -17.512,17.512c5.181,-0.949 9.377,-2.882 14.886,-3.502c4.706,55.307 -11.237,111.637 -20.139,161.983c4.816,-0.438 3.393,-7.114 10.507,-5.253c1.897,9.193 1.35,20.831 5.254,28.019c4.378,-5.837 2.371,-18.059 8.756,-21.89c9.522,7.698 12.987,21.452 23.64,28.018c12.076,-6.019 22.401,-13.79 39.402,-14.884c-8.428,-19.883 -19.737,-36.884 -28.894,-56.037c-8.063,1.349 -21.416,4.742 -28.019,7.004c2.955,-9.303 15.396,-9.121 21.889,-14.885c-7.515,-5.034 -19.08,-2.481 -24.516,-4.378c4.268,-6.348 12.368,-2.189 21.014,-1.751c-7.625,-20.066 -29.296,-51.404 0.876,-62.167c-3.867,-11.674 -7.333,-24.735 -10.508,-37.651c-1.933,-7.77 -7.588,-18.532 -0.875,-23.64c3.393,17.913 4.597,44.035 15.761,56.913l0,4.378c63.261,-11.455 124.953,-19.664 190.002,-28.895c-6.203,-1.677 -9.267,-6.493 -14.009,-9.631c-0.402,4.78 -2.518,11.748 -6.13,10.507c0.803,-4.304 2.116,-15.286 7.881,-17.511c2.808,6.238 6.421,11.674 14.009,13.133c1.496,-4.962 -3.83,-9.996 -3.502,-16.636c9.85,0.365 14.191,6.239 22.765,7.881c4.086,-1.059 9.412,-3.685 8.756,3.501c-9.012,0.913 -19.445,-3.757 -27.143,-7.004c1.788,4.852 4.924,10.289 2.627,16.636c30.353,-3.867 64.319,-4.195 97.19,-7.005c2.955,-9.485 4.742,-22.108 3.502,-33.272c-0.511,-4.56 -4.342,-10.726 0,-13.133c7.478,6.713 3.028,28.42 4.378,38.526c3.43,-2.992 0.948,-11.894 7.005,-12.259c1.751,7.99 -5.838,13.936 -8.756,20.138c18.168,-4.888 33.674,0.658 38.525,16.637c0.037,20.649 -7.114,38.818 -11.383,57.788c7.48,2.955 12.879,-8.026 19.264,-6.129c1.24,6.786 -7.589,3.502 -7.881,8.756c7.552,3.831 20.139,2.627 22.766,11.383c-8.61,1.167 -22.291,-9.121 -35.9,-6.129c-5.508,20.467 -10.908,41.043 -16.635,61.291c13.972,0.62 23.604,5.582 36.774,7.005c2.991,4.597 4.013,11.163 7.88,14.885c3.356,-7.443 4.707,-16.892 9.632,-22.766c6.494,2.262 4.414,13.098 10.507,15.761m3.94,-302.844c1.568,-2.809 7.588,-1.167 9.632,-3.502c-7.334,-4.342 -14.886,-8.464 -22.766,-12.258c3.612,6.019 8.5,10.762 13.134,15.76m13.863,424.66c-0.51,-8.245 -6.712,-10.8 -7.879,-18.387c-1.278,-1.35 -3.686,-1.569 -4.342,-3.502c-13.9,-24.663 -28.201,-48.924 -44.656,-70.96c-3.428,1.313 -6.53,2.882 -9.668,4.378c-6.675,19.007 -7.587,43.78 -34.111,42.904c14.01,24.225 37.286,43.268 56.877,61.327c7.005,6.458 13.973,14.192 21.89,16.637c-5.655,-18.571 -15.396,-37.724 -19.263,-55.198c13.79,7.587 27.435,15.212 41.152,22.801m-11.236,-450.052c7.771,7.005 21.196,23.605 32.397,11.383c-10.07,-4.524 -21.197,-7.99 -32.397,-11.383m-17.95,-8.756c21.051,2.736 43.123,21.306 62.167,12.258c-12.039,-21.67 -41.226,-44.436 -67.42,-49.908c-18.716,-3.904 -27.909,5.728 -44.655,9.632c2.007,4.378 -0.803,13.316 1.751,14.884c19.409,-3.429 52.681,-6.384 66.545,4.378c-3.539,2.117 -11.127,8.173 -14.885,4.378c-1.35,-5.144 5.217,-2.371 6.129,-5.253c-16.819,-3.466 -43.233,-4.633 -56.913,0.875c0.912,4.926 3.1,8.574 3.502,14.01c-3.284,2.517 -7.151,1.022 -11.382,0c-0.037,11.638 -7.589,15.76 -7.881,27.143c11.055,5.692 29.733,6.64 41.152,7.005c1.314,-3.868 -5.91,-10.835 -2.626,-16.636c7.333,1.203 13.973,10.507 21.89,14.009c2.554,-2.408 8.828,-1.095 10.507,-4.378c-4.597,-8.829 -14.703,-12.149 -17.512,-22.765c15.724,3.903 26.486,17.22 42.028,18.387c-2.481,-7.187 -10.178,-10.106 -15.76,-14.009c-5.984,-4.196 -13.754,-7.26 -16.637,-14.01m65.086,-137.868c4.05,-32.105 -13.025,-57.132 -25.393,-77.927c-4.851,16.161 -15.103,42.21 -27.142,49.908c-10.034,6.421 -23.094,6.64 -35.024,13.134c0.73,9.777 -2.08,16.016 -4.378,22.765c4.305,7.808 9.996,13.134 11.382,23.641c0.876,6.676 -1.86,14.155 -0.875,21.014c0.547,3.867 4.633,7.443 5.253,11.383c1.898,11.966 -5.982,20.065 -6.129,29.77c19.153,-4.269 38.088,-14.776 51.66,-29.77c7.479,-8.245 10.726,-19.993 16.636,-30.646c6.275,-11.273 12.55,-21.744 14.01,-33.272m-3.795,129.149c4.378,4.378 12.843,12.769 12.259,18.387c-0.839,8.245 -23.313,18.424 -33.273,21.89c-27.508,9.558 -62.604,17.074 -96.314,9.632c-0.146,8.427 9.741,11.163 7.88,18.387c-6.494,0.547 -11.529,-7.662 -17.512,-10.507c0.84,8.865 9.085,14.739 7.005,23.641c-9.011,-2.955 -15.177,-8.756 -22.765,-13.134c-8.501,11.346 -17.877,21.816 -27.143,32.396c10.142,8.245 25.246,9.705 42.903,10.508c6.641,0.291 16.709,-2.117 21.89,2.626c-0.73,5.4 -7.37,4.889 -10.507,7.88c4.998,6.093 18.57,3.612 22.765,10.508c-3.101,3.903 -11.237,2.772 -15.76,5.253c30.171,42.575 64.756,102.918 68.296,171.615c1.057,20.649 -1.606,37.869 -10.507,50.784c-5.838,-2.627 -7.735,-9.193 -9.632,-15.761c-4.122,5.509 -5.181,14.083 -9.632,19.263c-7.369,-1.97 -7.88,-10.799 -11.382,-16.636c-10.909,-1.459 -23.276,-9.631 -34.148,-7.88c-7.479,1.204 -9.704,9.959 -17.512,9.631c1.642,8.939 -3.758,10.836 -5.253,16.637c8.208,-7.224 17.949,-9.267 28.894,-6.13c2.736,4.561 6.384,8.209 7.881,14.01c7.15,-1.715 9.449,-2.882 16.635,-4.378c16.308,28.128 32.178,56.293 49.908,84.057c5.546,8.646 14.666,16.125 14.886,27.142c-17.366,-5.691 -28.785,-17.329 -45.531,-23.64c6.275,16.782 14.52,39.182 21.015,58.664c-15.25,-7.953 -27.581,-20.503 -40.278,-31.521c-17.621,-15.286 -33.892,-32.47 -49.032,-50.784c-6.349,-1.24 -9.34,-5.837 -14.01,-8.756c0.292,-7.37 -1.277,-7.881 -4.378,-12.259c-8.135,0.912 -16.673,1.423 -22.765,4.378c1.532,52.901 -1.97,111.966 -23.641,147.099c-0.401,4.487 4.195,3.976 3.502,8.756c-1.094,4.159 -3.283,7.223 -5.253,10.508c5.91,40.422 -1.387,81.028 -11.383,111.199c-13.79,-7.516 -10.653,-31.959 -21.013,-42.905c-2.701,6.969 -6.604,12.697 -10.508,19.264c-3.429,5.764 -4.669,14.447 -11.382,17.512c-3.977,1.349 0.474,-5.729 -3.503,-4.378c4.597,-16.49 1.751,-36.082 2.627,-56.038c0.693,-15.505 -2.736,-29.515 -2.627,-41.152c0.037,-3.941 0.401,-7.005 3.503,-9.632c-0.731,-3.357 -1.132,-7.041 -0.876,-11.382c4.232,-1.898 7.808,-4.451 14.01,-4.378c9.412,-35.425 0.255,-83.874 -7.881,-116.453c-16.272,-7.553 -36.592,7.515 -47.281,18.387c-10.763,10.945 -20.431,24.663 -24.517,36.775c-9.741,28.931 1.605,59.648 -0.875,89.309c-1.934,23.24 -9.851,45.093 -25.393,58.665c-13.425,11.71 -46.843,32.104 -64.793,35.023c-27.544,4.487 -68.879,-15.797 -84.932,-29.77c-11.091,-9.668 -26.559,-31.704 -29.77,-48.157c-5.108,-26.195 0.036,-49.689 8.756,-67.421c4.488,-9.12 14.155,-22.838 22.765,-28.893c9.814,-6.896 20.029,-8.356 36.775,-8.756c0.511,-9.559 -5.035,-13.062 -5.254,-21.89c12.477,3.101 25.867,9.339 37.651,15.76c5.509,2.992 10.142,8.1 14.884,12.259c4.816,4.195 11.821,7.442 13.134,14.009c-21.305,3.539 -37.686,16.344 -58.664,22.765c-0.766,-1.277 -0.693,-3.392 -3.502,-2.627c-0.912,-3.356 -0.912,-10.069 -0.876,-16.635c-33.053,0.729 -54.906,33.052 -49.908,70.046c4.305,31.886 24.115,51.003 52.535,61.291c38.562,13.973 73.658,-9.011 93.688,-31.521c18.606,-27.143 7.88,-79.97 14.009,-118.204c3.21,-19.883 12.696,-34.477 20.139,-50.784c-4.962,-1.605 -11.857,6.64 -15.761,6.129c-17.184,-11.419 -25.246,-31.958 -34.148,-51.66c3.685,-8.281 12.915,-11.017 17.512,-18.387c-2.809,-4.196 -9.559,-4.451 -14.01,-7.004c-4.925,-5.874 -7.077,-14.521 -13.133,-19.264c-9.121,-0.328 -19.592,3.867 -28.019,8.756c-6.056,3.503 -8.975,7.954 -14.885,6.13c-6.166,-7.844 -11.018,-17.001 -18.387,-23.642c-5.4,6.276 -5.582,17.768 -9.632,25.393c-12.185,-2.627 -5.29,-21.999 -11.383,-33.273c-5.29,2.043 -7.515,11.711 -11.382,12.258c-7.369,-2.626 -2.846,-12.222 -1.751,-16.636c4.341,-17.511 7.15,-37.066 10.507,-57.789c5.363,-32.907 13.499,-61.911 11.382,-97.189c-7.953,1.678 -14.958,3.502 -21.889,0c3.174,-9.377 14.301,-10.799 19.262,-18.388c-6.712,-2.627 -16.563,-2.116 -21.013,-7.005c3.757,-4.304 9.996,-2.444 14.884,-3.502c17.549,-3.794 32.105,-13.024 41.153,-25.392c-20.941,-9.704 -44.363,-16.928 -61.291,-30.645c-3.247,1.423 -1.97,7.333 -7.88,6.129c-1.533,-16.563 -16.746,-19.446 -24.517,-29.77c-30.098,10.361 -61.51,-0.328 -86.683,-13.134c-12.112,-6.166 -26.596,-13.462 -33.272,-21.014c-9.924,-11.237 0,-24.37 9.631,-33.272c12.696,-11.748 30.245,-20.978 51.66,-22.766c-10.252,-17.621 -31.083,-34.257 -41.153,-61.291c-5.18,-13.863 -8.646,-30.281 -13.133,-47.282c-7.224,-27.435 -15.396,-62.312 3.502,-79.678c7.625,-7.005 20.503,-13.9 30.646,-14.885c-0.913,13.864 -1.934,38.818 0.875,54.287c12.368,6.895 24.808,13.717 39.401,18.387c-3.247,-30.317 14.01,-47.683 39.402,-54.286c8.574,-31.412 22.327,-57.643 58.664,-61.291c11.675,-11.091 21.963,-23.568 48.158,-20.139c9.485,-17.621 24.37,-32.725 48.157,-35.024c21.451,-2.079 40.204,8.61 55.161,18.388c22.183,-24.152 83.182,-41.372 112.951,-14.01c9.887,9.085 19.445,24.626 15.761,45.531c21.963,1.386 32.835,13.863 36.774,33.272c23.241,5.655 31.412,26.377 35.024,51.66c11.675,6.129 22.911,12.696 26.267,27.143c12.514,-5.217 24.298,-7.078 34.149,-13.134c18.095,-11.127 20.576,-35.753 29.769,-56.038c6.349,3.175 9.413,10.945 13.134,17.512c8.865,15.688 21.817,41.773 21.015,66.545c-0.366,11.127 -6.349,24.151 -11.383,35.024c-12.404,26.741 -30.427,51.987 -55.162,63.918c19.956,10.214 39.328,20.065 56.037,36.774" style="fill:#231f20;fill-rule:nonzero;"/><path d="M673.09,308.967c21.634,-13.645 34.585,-38.781 31.521,-74.425c-1.788,-0.255 -1.715,-2.371 -3.502,-2.627c-0.438,1.022 -0.949,1.97 -1.751,2.627c6.42,33.382 -7.991,60.014 -29.771,70.923c1.24,0.328 2.992,4.451 0.876,5.253c-4.779,-1.35 -8.865,-3.393 -14.01,-4.378c-2.079,4.962 6.749,5.911 7.005,11.383c-5.801,0.547 -6.347,-4.159 -12.258,-3.503c0.62,7.553 9.814,6.531 17.512,7.005c3.246,-2.955 -4.816,-5.217 -1.752,-7.88c2.444,1.058 6.057,0.949 9.632,0.875c1.167,-4.086 -1.934,-3.903 -3.502,-5.253m25.318,-100.692c12.369,20.795 29.443,45.822 25.393,77.927c-1.46,11.528 -7.734,21.999 -14.01,33.272c-5.91,10.653 -9.157,22.401 -16.636,30.646c-13.572,14.994 -32.506,25.501 -51.66,29.769c0.147,-9.704 8.027,-17.803 6.129,-29.769c-0.62,-3.941 -4.706,-7.516 -5.253,-11.383c-0.985,-6.859 1.751,-14.338 0.875,-21.014c-1.385,-10.507 -7.077,-15.834 -11.382,-23.641c2.298,-6.749 5.108,-12.988 4.378,-22.765c11.93,-6.494 24.991,-6.713 35.024,-13.134c12.039,-7.698 22.291,-33.747 27.142,-49.908" style="fill:#c7b07e;fill-rule:nonzero;"/><path d="M720.882,436.328c-19.044,9.048 -41.116,-9.522 -62.167,-12.258c2.883,6.749 10.653,9.814 16.637,14.009c5.582,3.904 13.279,6.823 15.76,14.01c-15.542,-1.168 -26.304,-14.484 -42.028,-18.387c2.809,10.616 12.915,13.936 17.512,22.765c-1.679,3.283 -7.953,1.97 -10.507,4.378c-7.917,-3.503 -14.557,-12.806 -21.89,-14.01c-3.284,5.801 3.94,12.769 2.626,16.636c-11.419,-0.365 -30.097,-1.313 -41.152,-7.004c0.292,-11.383 7.844,-15.506 7.881,-27.143c4.231,1.021 8.099,2.517 11.382,0c-0.402,-5.436 -2.59,-9.085 -3.502,-14.01c13.68,-5.509 40.094,-4.341 56.913,-0.876c-0.912,2.883 -7.479,0.11 -6.129,5.254c3.758,3.794 11.346,-2.262 14.885,-4.378c-13.864,-10.762 -47.136,-7.807 -66.545,-4.378c-2.554,-1.568 0.256,-10.507 -1.751,-14.885c16.746,-3.904 25.939,-13.535 44.655,-9.631c26.194,5.472 55.381,28.237 67.42,49.908" style="fill:#968dc4;fill-rule:nonzero;"/><path d="M704.61,234.542c3.064,35.644 -9.887,60.78 -31.521,74.425c1.569,1.35 4.669,1.167 3.502,5.253c-3.575,0.073 -7.187,0.183 -9.631,-0.875c-3.065,2.663 4.998,4.925 1.752,7.88c-7.699,-0.474 -16.892,0.547 -17.512,-7.005c5.91,-0.657 6.457,4.05 12.258,3.503c-0.256,-5.473 -9.084,-6.421 -7.005,-11.383c5.144,0.985 9.23,3.028 14.01,4.378c2.116,-0.802 0.364,-4.925 -0.876,-5.254c21.78,-10.908 36.191,-37.54 29.77,-70.922c0.803,-0.657 1.314,-1.605 1.751,-2.627c1.787,0.255 1.715,2.372 3.502,2.627" style="fill:#231f20;fill-rule:nonzero;"/><path d="M709.061,444.209c-11.2,12.222 -24.626,-4.378 -32.396,-11.383c11.2,3.393 22.327,6.859 32.396,11.383" style="fill:#968dc4;fill-rule:nonzero;"/><path d="M680.021,864.49c1.168,7.588 7.37,10.143 7.88,18.388c-13.717,-7.589 -27.361,-15.214 -41.152,-22.802c3.868,17.475 13.609,36.628 19.263,55.198c-7.918,-2.444 -14.885,-10.179 -21.889,-16.637c-19.591,-18.058 -42.869,-37.102 -56.877,-61.327c26.522,0.876 27.434,-23.896 34.111,-42.904c3.137,-1.495 6.238,-3.064 9.668,-4.378c16.453,22.036 30.755,46.297 44.654,70.96c0.656,1.934 3.065,2.152 4.342,3.502" style="fill:#968dc4;fill-rule:nonzero;"/><path d="M683.67,454.716c-2.044,2.335 -8.063,0.693 -9.632,3.502c-4.634,-4.998 -9.522,-9.74 -13.134,-15.76c7.88,3.793 15.432,7.917 22.766,12.257" style="fill:#968dc4;fill-rule:nonzero;"/><path d="M461.015,610.972c5.546,-4.087 -3.83,-12.076 -6.129,-16.6c-6.165,2.298 -5.983,10.945 -11.383,13.973c-3.356,-5.655 -1.641,-16.417 -3.502,-23.604l-2.627,0c-7.186,11.2 -19.299,22.108 -31.521,25.391c1.606,-3.356 1.788,-8.136 2.627,-12.258c-8.026,-0.328 -12.623,10.034 -21.014,12.258c-1.423,1.278 -8.318,-1.021 -7.005,5.218c9.596,-1.788 15.396,-7.333 22.765,-11.383c0.913,5.326 -2.006,6.785 -2.626,10.507c16.417,0.62 24.078,-14.958 35.899,-21.89c1.167,7.589 2.517,15.032 4.378,21.89c7.114,-2.189 7.296,-11.346 14.009,-14.01c2.81,2.737 2.19,8.939 6.129,10.508m211.71,90.55c2.554,17.949 2.772,41.371 -2.627,59.54c-6.093,-2.663 -4.013,-13.499 -10.507,-15.761c-4.925,5.874 -6.275,15.323 -9.632,22.766c-3.867,-3.722 -4.888,-10.288 -7.88,-14.885c-13.169,-1.423 -22.801,-6.385 -36.774,-7.005c5.728,-20.248 11.127,-40.824 16.636,-61.291c13.608,-2.992 27.289,7.296 35.899,6.129c-2.627,-8.756 -15.214,-7.552 -22.765,-11.383c0.292,-5.254 9.121,-1.97 7.88,-8.756c-6.384,-1.897 -11.784,9.084 -19.263,6.129c4.268,-18.97 11.42,-37.139 11.383,-57.788c-4.852,-15.979 -20.358,-21.525 -38.526,-16.637c2.918,-6.202 10.507,-12.148 8.756,-20.138c-6.057,0.365 -3.575,9.267 -7.005,12.259c-1.349,-10.106 3.101,-31.813 -4.378,-38.526c-4.342,2.407 -0.511,8.573 0,13.133c1.24,11.164 -0.547,23.787 -3.502,33.272c-32.871,2.81 -66.837,3.138 -97.19,7.005c2.298,-6.347 -0.839,-11.784 -2.627,-16.636c7.698,3.247 18.132,7.917 27.143,7.004c0.657,-7.186 -4.669,-4.56 -8.755,-3.502c-8.575,-1.641 -12.915,-7.515 -22.766,-7.88c-0.328,6.64 4.998,11.674 3.502,16.636c-7.588,-1.459 -11.2,-6.895 -14.009,-13.133c-5.765,2.225 -7.078,13.207 -7.881,17.511c3.613,1.241 5.729,-5.727 6.13,-10.507c4.742,3.138 7.807,7.954 14.009,9.631c-65.049,9.231 -126.741,17.44 -190.002,28.895l0,-4.378c-11.164,-12.878 -12.368,-39 -15.761,-56.913c-6.713,5.108 -1.058,15.87 0.876,23.64c3.174,12.915 6.64,25.977 10.507,37.651c-30.171,10.763 -8.5,42.101 -0.876,62.167c-8.646,-0.438 -16.746,-4.597 -21.014,1.751c5.436,1.897 17.001,-0.656 24.517,4.378c-6.494,5.764 -18.935,5.582 -21.89,14.885c6.603,-2.262 19.956,-5.655 28.019,-7.004c9.157,19.153 20.467,36.154 28.894,56.037c-17.001,1.094 -27.325,8.865 -39.401,14.884c-10.653,-6.566 -14.119,-20.32 -23.641,-28.018c-6.385,3.831 -4.378,16.053 -8.756,21.89c-3.904,-7.188 -3.356,-18.826 -5.253,-28.019c-7.115,-1.861 -5.692,4.815 -10.508,5.253c8.902,-50.346 24.845,-106.676 20.139,-161.983c-5.509,0.62 -9.705,2.553 -14.885,3.502c4.232,-7.442 14.155,-9.193 17.511,-17.512c-0.948,-4.304 -8.39,-2.115 -13.133,-2.626c16.417,-7.516 34.403,-13.463 43.779,-28.019c45.129,14.556 91.316,34.731 144.472,34.148c19.007,-0.219 36.884,-11.821 50.784,-20.139c20.54,-12.331 35.425,-32.141 53.411,-44.655c14.191,7.917 34.439,11.675 54.286,11.383c-0.912,2.882 -5.691,1.897 -7.88,3.502c3.174,7.333 14.156,6.859 21.014,10.507c-1.496,3.174 -7.808,1.533 -10.507,3.503c9.121,12.623 18.351,22.582 28.019,39.401c9.193,15.979 18.861,36.994 26.267,55.162c7.37,18.095 13.171,41.299 15.761,59.54" style="fill:#968dc4;fill-rule:nonzero;"/><path d="M651.273,462.596c-1.276,1.35 -4.487,0.766 -7.005,0.875c-0.438,-4.523 -4.597,-5.326 -4.379,-10.506c4.269,2.736 8.21,5.8 11.384,9.631" style="fill:#968dc4;fill-rule:nonzero;"/><path d="M621.065,624.835c2.371,-0.62 1.751,1.751 3.502,1.751c-0.256,1.788 -2.371,1.715 -2.627,3.502c-2.407,0 -2.079,-4.122 -0.875,-5.253" style="fill:#231f20;fill-rule:nonzero;"/><path d="M297.098,679.121c-2.59,-11.747 5.983,-14.63 13.134,-14.01c-1.788,-2.006 -0.948,-6.676 -3.502,-7.88c-3.977,5.327 -20.139,13.28 -9.632,21.89m20.139,-15.761c-0.73,-3.976 -0.548,-8.756 -5.254,-8.756c-0.036,4.706 1.058,8.283 5.254,8.756m6.129,-4.378c0.292,-3.502 0,-6.421 -2.627,-7.005c-0.511,1.825 -2.152,2.482 -1.751,5.254c1.678,0.366 1.568,2.518 4.378,1.751m7.88,-3.502c4.013,0.328 4.56,-2.809 3.502,-5.254l-3.502,0c-0.255,2.043 -1.714,3.613 0,5.254m113.827,64.793c2.881,22.51 62.093,16.564 50.784,-11.382c-10.471,-12.878 -53.485,-9.595 -50.784,11.382m114.702,-96.314c0.583,-6.896 -7.99,-3.539 -11.383,-3.502c-30.099,0.401 -65.049,4.56 -96.315,7.88c-27.544,5.18 -67.201,14.483 -95.439,19.263c-4.378,0.73 -13.243,-1.569 -14.009,5.253c29.952,-7.698 69.135,-13.753 103.319,-20.138c3.648,-1.022 3.429,1.86 6.129,1.751c16.964,-4.998 43.013,-9.996 67.42,-11.382c15.724,-0.876 33.345,1.495 40.278,0.875m39.401,-1.751c-0.621,-2.663 1.495,-2.59 0.875,-5.254c-13.17,2.81 -26.304,-2.043 -37.65,2.627c0.51,4.086 6.093,1.095 9.632,0.876c8.829,-0.511 21.378,-0.439 27.143,1.751m5.253,0.876c0.803,-3.284 6.275,-1.898 5.254,-7.005c-6.166,-1.313 -10.143,4.67 -5.254,7.005m12.259,0.875c0.364,-1.678 2.516,-1.568 1.751,-4.378c-4.342,1.423 -2.81,-3.064 -6.129,-2.627c-0.985,1.934 -2.263,3.576 -1.752,7.005c3.466,-1.459 2.664,-1.459 6.13,0m7.88,2.627c-1.751,0 -1.131,-2.371 -3.502,-1.751c-1.204,1.131 -1.532,5.253 0.875,5.253c0.256,-1.787 2.371,-1.714 2.627,-3.502m-6.02,-16.272c13.79,11.711 6.896,30.062 1.751,49.872c-7.989,30.938 -15.177,69.938 -27.143,94.564c-8.282,6.056 -20.467,8.172 -28.894,14.046c-49.8,9.813 -109.157,12.696 -164.611,20.138c-7.661,1.022 -15.541,0.73 -22.765,1.751c-5.91,0.839 -13.608,6.02 -25.392,4.342c0.985,-2.08 -4.305,-3.32 -3.502,-2.591c-5.983,-5.508 -11.127,-23.859 -16.637,-33.272c-6.275,-10.799 -10.178,-21.306 -16.635,-32.397c-6.604,-11.345 -12.405,-19.445 -18.388,-31.521c-5.801,-11.747 -18.715,-35.388 -7.88,-46.405c7.99,-8.1 40.532,-7.333 53.411,-9.632c43.341,-7.698 95.001,-17.402 140.093,-20.139c23.094,-1.386 48.45,-4.231 76.176,-6.129c21.671,-1.496 40.643,-2.043 60.416,-2.627" style="fill:#b09190;fill-rule:nonzero;"/><path d="M618.439,619.581c0.765,2.81 -1.387,2.7 -1.751,4.378c-3.466,-1.459 -2.664,-1.459 -6.13,0c-0.511,-3.429 0.766,-5.071 1.751,-7.005c3.32,-0.437 1.788,4.05 6.13,2.627" style="fill:#231f20;fill-rule:nonzero;"/><path d="M609.683,616.079c1.021,5.107 -4.451,3.721 -5.254,7.005c-4.889,-2.335 -0.912,-8.318 5.254,-7.005" style="fill:#231f20;fill-rule:nonzero;"/><path d="M611.032,784.812c-3.028,6.421 -0.547,9.741 2.627,14.01c-0.548,22.802 -13.645,37.722 -35.899,35.898c-0.73,-6.274 5.399,-5.69 8.755,-7.916c9.194,-9.34 14.156,-31.303 7.881,-48.121c7.224,-2.955 14.739,0.839 16.636,6.129" style="fill:#968dc4;fill-rule:nonzero;"/><path d="M600.051,616.954c0.62,2.664 -1.496,2.591 -0.875,5.254c-5.765,-2.19 -18.314,-2.262 -27.144,-1.751c-3.539,0.219 -9.121,3.21 -9.631,-0.876c11.346,-4.67 24.48,0.183 37.65,-2.627" style="fill:#231f20;fill-rule:nonzero;"/><path d="M590.383,780.251c10.105,13.098 4.342,41.591 -11.346,44.655c2.445,-8.682 14.156,-23.567 6.093,-37.65c0.401,-3.685 4.487,-3.721 5.253,-7.005" style="fill:#968dc4;fill-rule:nonzero;"/><path d="M375.354,857.814c6.202,-6.64 14.921,-10.762 18.387,-20.138c-3.283,-4.999 -14.447,-3.904 -21.014,-7.005c-3.429,-1.641 -5.107,-5.764 -7.88,-1.751c-0.11,-2.517 -1.095,-4.159 -4.378,-3.502c-0.292,1.167 -1.24,1.678 -0.876,3.502c6.056,8.829 11.31,18.46 15.761,28.894m201.896,-76.541c9.193,9.268 8.755,27.107 0.875,37.65c-74.571,9.195 -143.888,23.678 -203.136,48.158c-6.385,-4.232 -11.054,-11.346 -15.76,-19.263c-3.613,-6.093 -11.019,-18.059 -10.507,-23.641c0.51,-5.435 10.615,-14.082 16.635,-14.884c3.685,-0.511 8.136,2.371 12.259,2.626c10.908,0.621 21.671,-3.101 30.644,-3.502c2.7,-1.095 4.524,-3.065 7.005,-4.378c13.463,-1.314 27.91,-4.597 42.904,-7.005c14.156,-2.262 28.421,-1.495 42.029,-3.502c2.773,-0.402 5.91,-2.371 8.756,-2.627c19.809,-1.715 44.07,0.036 61.29,-5.254c2.553,-0.766 4.634,-2.845 7.006,-4.378" style="fill:#968dc4;fill-rule:nonzero;"/><path d="M578.453,770.255c2.7,5.071 -7.552,11.456 -15.761,11.383c0.73,-2.189 1.131,-4.706 0.876,-7.88c5.582,-1.898 10.982,-1.679 14.885,-3.503" style="fill:#342222;fill-rule:nonzero;"/><path d="M548.392,620.457c3.393,-0.037 11.966,-3.394 11.383,3.502c-6.933,0.62 -24.554,-1.751 -40.278,-0.875c-24.407,1.386 -50.456,6.384 -67.419,11.382c-2.701,0.109 -2.482,-2.773 -6.13,-1.751c-34.184,6.385 -73.367,12.44 -103.319,20.138c0.766,-6.822 9.631,-4.523 14.009,-5.253c28.238,-4.78 67.895,-14.082 95.44,-19.263c31.265,-3.319 66.215,-7.479 96.314,-7.88" style="fill:#231f20;fill-rule:nonzero;"/><path d="M559.19,774.633c0.183,3.394 0.036,6.458 -0.876,8.756c-3.903,-0.693 -5.253,1.168 -8.756,0.876l0,-8.756c5.217,-0.183 5.4,-0.584 9.632,-0.876" style="fill:#342222;fill-rule:nonzero;"/><path d="M546.057,779.011l0,5.254c-1.971,-0.073 -6.494,1.897 -8.756,0.875c-2.846,-7.844 5.108,-10.106 8.756,-6.129" style="fill:#c4c6c8;fill-rule:nonzero;"/><path d="M531.463,843.44c-1.678,-0.364 -1.568,-2.518 -4.378,-1.751c-3.319,13.024 -8.208,24.48 -14.009,35.023c-8.865,-7.187 -11.128,-20.977 -21.889,-26.267c-0.694,6.932 6.931,11.784 11.382,17.512c4.488,5.8 7.151,14.119 12.258,16.635c5.436,-13.826 11.894,-26.631 16.636,-41.152m8.063,-13.498c1.569,50.455 -2.918,114.081 -25.392,148.85c-9.668,4.304 -17.621,7.223 -27.143,2.627c7.698,-45.532 1.131,-104.05 -14.009,-140.095c21.816,-4.158 42.867,-9.084 66.544,-11.382" style="fill:#968dc4;fill-rule:nonzero;"/><path d="M532.923,779.011c0.984,2.773 0.072,1.971 0,5.254c-4.451,4.086 -12.66,2.298 -18.388,2.627c-35.461,1.97 -67.529,6.858 -100.692,14.009c-1.277,-2.809 -2.992,-5.181 -2.627,-9.631c39.146,-4.378 79.059,-8.282 121.707,-12.259" style="fill:#342222;fill-rule:nonzero;"/><path d="M527.085,841.689c2.81,-0.767 2.7,1.387 4.378,1.751c-4.742,14.52 -11.2,27.326 -16.636,41.152c-5.107,-2.516 -7.77,-10.835 -12.258,-16.635c-4.451,-5.728 -12.076,-10.58 -11.382,-17.512c10.761,5.29 13.024,19.08 21.889,26.267c5.801,-10.544 10.69,-21.999 14.009,-35.023" style="fill:#231f20;fill-rule:nonzero;"/><path d="M519.424,983.424c3.247,7.005 -5.764,7.844 -6.129,14.01c-9.96,4.925 -28.968,4.962 -36.774,-1.751c0.839,-5.509 -3.868,-5.473 -3.503,-10.508c6.239,-4.633 10.397,-0.948 14.01,3.503c10.214,2.116 23.932,-0.62 32.396,-5.254" style="fill:#968dc4;fill-rule:nonzero;"/><path d="M515.63,1005.06c4.962,32.798 0.475,62.458 -7.881,88.434c-3.976,-9.522 -9.595,-20.247 -13.134,-30.646c-1.532,-4.487 -0.218,-10.689 -5.253,-13.134c-7.698,8.064 -7.223,24.298 -15.76,31.522c0.437,-25.684 -0.839,-52.243 -1.751,-76.176c10.361,7.479 32.761,8.281 42.028,-0.876c1.022,-0.145 1.568,0.183 1.751,0.876" style="fill:#968dc4;fill-rule:nonzero;"/><path d="M448.574,719.399c1.021,16.271 45.312,13.535 44.655,-3.503c-0.401,-10.36 -15.432,-11.564 -23.64,-10.507c-8.939,1.131 -21.635,4.305 -21.015,14.01m47.282,-10.508c11.31,27.946 -47.902,33.893 -50.784,11.383c-2.7,-20.978 40.314,-24.261 50.784,-11.383" style="fill:#231f20;fill-rule:nonzero;"/><path d="M458.206,716.772c-3.539,14.521 35.607,13.681 24.517,-4.378c-6.021,-1.97 -22.657,-3.247 -24.517,4.378m35.023,-0.876c0.657,17.038 -43.633,19.774 -44.655,3.503c-0.62,-9.705 12.076,-12.879 21.015,-14.01c8.208,-1.057 23.239,0.147 23.64,10.507" style="fill:#342222;fill-rule:nonzero;"/><path d="M480.971,721.15l0,-4.378c-3.939,-4.414 -17.913,-3.466 -19.263,2.627c2.409,5.982 14.594,5.034 19.263,1.751m1.752,-8.756c11.091,18.059 -28.056,18.899 -24.517,4.378c1.861,-7.625 18.496,-6.348 24.517,-4.378" style="fill:#231f20;fill-rule:nonzero;"/><path d="M480.971,716.772l0,4.378c-4.669,3.283 -16.854,4.231 -19.263,-1.751c1.35,-6.093 15.324,-7.041 19.263,-2.627" style="fill:#b09190;fill-rule:nonzero;"/><path d="M466.378,849.678c-21.488,-1.203 -46.844,14.338 -58.664,31.521c-6.458,9.414 -16.308,26.123 -18.388,38.527c-3.502,20.94 0.183,48.557 1.752,70.047c2.079,28.565 -11.2,58.116 -31.521,72.673c-3.722,2.664 -9.267,5.035 -14.01,7.88c-10.325,6.203 -27.727,18.607 -42.904,20.139c-8.719,0.875 -20.685,-2.043 -29.769,-5.254c-39.73,-14.082 -75.046,-36.118 -75.301,-89.309c-0.146,-25.173 11.966,-47.173 25.392,-63.918c9.741,-10.726 29.405,-12.039 45.531,-14.01c0.547,-8.136 -3.831,-11.346 -4.378,-18.387c15.723,9.668 36.409,14.374 46.406,29.77c-15.688,5.618 -29.771,12.842 -44.655,19.262c-4.086,-3.502 0.656,-15.833 -3.503,-19.262c-37.686,0.584 -66.289,31.995 -60.415,75.3c2.371,17.366 10.252,36.228 21.889,48.158c13.134,13.426 39.767,26.341 60.416,27.142c20.613,0.803 40.934,-10.105 55.162,-20.137c24.297,-17.148 33.309,-38.454 33.272,-75.301c0,-16.089 0.219,-31.703 0.876,-46.406c1.277,-29.442 14.593,-51.623 23.641,-75.301c21.05,-6.968 42.319,-13.717 64.793,-19.263c2.773,0.73 3.247,3.758 4.378,6.129" style="fill:#968dc4;fill-rule:nonzero;"/><path d="M454.886,594.372c2.299,4.524 11.675,12.513 6.129,16.6c-3.94,-1.569 -3.319,-7.771 -6.129,-10.508c-6.713,2.664 -6.896,11.822 -14.009,14.01c-1.861,-6.858 -3.211,-14.301 -4.378,-21.89c-11.821,6.932 -19.482,22.51 -35.899,21.89c0.62,-3.722 3.538,-5.181 2.626,-10.507c-7.369,4.05 -13.17,9.595 -22.765,11.383c-1.313,-6.239 5.582,-3.94 7.005,-5.218c8.391,-2.224 12.988,-12.586 21.014,-12.258c-0.839,4.123 -1.021,8.902 -2.627,12.258c12.222,-3.283 24.335,-14.191 31.521,-25.391l2.627,0c1.861,7.187 0.146,17.949 3.502,23.604c5.4,-3.028 5.218,-11.675 11.383,-13.973" style="fill:#231f20;fill-rule:nonzero;"/><path d="M406.838,792.145c-0.073,4.743 2.773,6.567 2.627,11.383c-2.882,1.204 -6.093,2.08 -10.507,1.751c-0.912,-4.925 -8.063,-3.612 -6.129,-11.383c4.597,-0.656 9.084,-1.422 14.009,-1.751" style="fill:#c4c6c8;fill-rule:nonzero;"/><path d="M392.829,806.155c-7.26,0.985 -10.397,-3.139 -10.507,-11.384c1.277,-0.473 4.524,1.023 4.378,-0.875c2.481,3.649 4.597,7.662 6.129,12.259" style="fill:#342222;fill-rule:nonzero;"/><path d="M377.469,849.423c3.648,-2.772 8.683,-4.195 8.792,-10.507c-6.384,-1.788 -12.769,-3.575 -19.262,-5.254c2.262,6.494 4.998,12.478 10.47,15.761m16.271,-11.747c-3.465,9.376 -12.185,13.498 -18.387,20.138c-4.451,-10.434 -9.704,-20.066 -15.76,-28.894c-0.365,-1.824 0.584,-2.335 0.875,-3.503c3.284,-0.656 4.269,0.985 4.378,3.503c2.773,-4.014 4.451,0.109 7.88,1.751c6.567,3.101 17.731,2.006 21.014,7.005" style="fill:#231f20;fill-rule:nonzero;"/><path d="M386.262,838.916c-0.109,6.312 -5.144,7.734 -8.792,10.507c-5.473,-3.283 -8.209,-9.267 -10.471,-15.761c6.494,1.679 12.879,3.466 19.263,5.254" style="fill:#968dc4;fill-rule:nonzero;"/><path d="M377.068,795.648c1.605,3.939 3.502,7.588 5.253,11.382c-7.369,-1.022 -13.097,-2.298 -17.511,-7.88c1.897,-3.356 7.734,-2.773 12.258,-3.502" style="fill:#342222;fill-rule:nonzero;"/><path d="M334.748,650.227c1.058,2.444 0.511,5.582 -3.502,5.254c-1.715,-1.642 -0.256,-3.211 0,-5.254l3.502,0Z" style="fill:#231f20;fill-rule:nonzero;"/><path d="M320.739,651.978c2.627,0.584 2.918,3.503 2.627,7.005c-2.81,0.766 -2.7,-1.386 -4.378,-1.751c-0.401,-2.773 1.24,-3.43 1.751,-5.254" style="fill:#231f20;fill-rule:nonzero;"/><path d="M311.983,654.605c4.706,0 4.524,4.779 5.253,8.756c-4.195,-0.474 -5.29,-4.05 -5.253,-8.756" style="fill:#231f20;fill-rule:nonzero;"/><path d="M310.231,665.112c-7.15,-0.62 -15.724,2.263 -13.134,14.01c-10.507,-8.611 5.655,-16.564 9.632,-21.89c2.554,1.203 1.714,5.874 3.502,7.88" style="fill:#231f20;fill-rule:nonzero;"/><path d="M181.302,493.643c1.35,-9.631 13.243,-12.769 11.382,-22.765c-10.871,4.889 -18.46,13.061 -28.894,18.387l0,5.253c-2.445,-1.057 -6.056,-0.948 -9.632,-0.875c3.758,-10.543 14.63,-13.973 18.388,-24.516c-13.535,1.933 -24.188,14.301 -35.899,21.014c-1.423,-1.496 -4.743,-1.095 -6.129,-2.627c4.451,-6.348 12.805,-8.792 13.134,-19.263c3.757,0.657 4.524,-1.568 7.88,1.751c-0.292,-3.21 0.729,-7.734 -0.876,-9.631c-2.152,0.766 -3.794,2.043 -3.502,5.253c-10.069,-3.064 -20.503,-5.764 -25.392,-14.009c13.316,-6.275 33.819,-11.383 49.033,-11.383c-0.146,4.524 1.131,7.625 2.627,10.507c4.45,-0.073 7.259,1.496 12.258,0.876c7.004,11.382 13.352,23.422 18.387,36.775c-7.077,2.261 -14.046,4.67 -22.765,5.253" style="fill:#968dc4;fill-rule:nonzero;"/><path d="M188.452,447.127c-2.298,0.73 -9.595,-0.036 -12.258,-1.751c-0.584,-3.21 -1.204,-6.384 -0.876,-10.507c-20.029,0.146 -41.554,6.312 -56.913,14.009c1.496,13.098 17.585,11.602 24.517,19.263c-10.872,2.554 -18.971,7.881 -29.77,10.507c-11.492,-7.771 -24.298,-14.228 -32.397,-25.392c5.545,-8.938 13.9,-20.977 25.392,-28.894c9.887,-6.822 28.53,-13.717 40.277,-11.383c10.178,2.007 17.147,11.602 28.894,13.134c2.883,8.464 9.011,13.754 13.134,21.014" style="fill:#968dc4;fill-rule:nonzero;"/><path d="M182.177,479.123c2.225,5.472 -6.202,7.807 -5.253,14.885l-11.383,0c2.043,-8.464 11.747,-9.267 16.636,-14.885" style="fill:#968dc4;fill-rule:nonzero;"/><path d="M143.833,340.379c0.584,-8.427 -4.597,-17.986 -10.507,-22.765c-3.028,2.517 2.809,6.603 0,8.756c-15.978,-23.13 -34.805,-43.415 -37.65,-79.679l-2.626,0c0,1.751 -2.371,1.131 -1.751,3.502c3.101,19.519 9.376,37.359 19.263,52.536c5.216,7.989 10.761,16.417 15.76,22.765c4.669,5.947 11.017,11.675 17.511,14.885m23.605,57.935c0.583,6.42 1.276,12.732 2.626,18.387c-13.061,-3.101 -24.005,-13.936 -34.148,-24.516c-8.755,-9.085 -18.751,-21.562 -25.392,-33.273c-8.755,-15.432 -12.951,-34.914 -18.387,-54.286c-5.728,-20.394 -11.675,-40.459 -11.383,-59.54c0.292,-19.919 14.265,-27.508 28.019,-36.774c1.022,-0.146 1.569,0.182 1.751,0.875c-0.912,15.067 -0.802,31.375 1.751,48.157c13.499,7.516 27.727,14.302 42.904,20.139c-8.536,13.499 -4.049,32.469 -2.626,51.659c0.985,13.134 -3.612,26.56 -0.876,38.526c2.809,12.332 10.616,22.145 15.76,30.646" style="fill:#c7b07e;fill-rule:nonzero;"/><path d="M159.412,476.496c0.693,5.691 -8.318,9.194 -9.631,15.761c-3.612,0.693 -4.488,-1.35 -7.881,-0.876c4.342,-6.457 12.332,-9.266 17.512,-14.885" style="fill:#968dc4;fill-rule:nonzero;"/><path d="M133.327,317.614c5.91,4.779 11.091,14.338 10.507,22.765c-6.494,-3.21 -12.842,-8.938 -17.512,-14.885c-4.998,-6.348 -10.543,-14.776 -15.76,-22.765c-9.887,-15.177 -16.162,-33.017 -19.263,-52.535c-0.62,-2.372 1.751,-1.751 1.751,-3.502l2.627,0c2.845,36.263 21.671,56.548 37.65,79.678c2.809,-2.152 -3.028,-6.239 0,-8.756" style="fill:#231f20;fill-rule:nonzero;"/><path d="M118.259,482.625c3.977,-5.655 12.003,-7.26 19.263,-9.631c-2.043,5.837 -6.749,9.011 -11.383,12.257c-3.028,-0.474 -4.67,-2.334 -7.88,-2.626" style="fill:#968dc4;fill-rule:nonzero;"/></g><path d="M535.573,206.73c9.05,3.317 21.818,8.9 35.898,4.375c-10.068,8.829 -28.379,4.817 -35.898,-4.375" style="fill:#191b3f;fill-rule:nonzero;"/><path d="M193.933,238.795c5.985,18.241 15.142,33.309 27.141,45.533c-17.622,-6.606 -27.397,-21.053 -27.141,-45.533" style="fill:#191b3f;fill-rule:nonzero;"/><path d="M521.074,249.882c-2.922,0.292 -4.928,1.496 -6.129,3.506c-6.534,-0.478 -10.511,-3.506 -16.638,-4.382c3.286,-7.803 12.805,-9.374 15.761,-17.508c7.076,1.422 7.076,9.848 7.006,18.384" style="fill:#191b3f;fill-rule:nonzero;"/><path d="M262.708,216.068c1.421,-0.253 1.496,0.837 2.625,0.876c-2.589,6.459 -2.262,15.833 -5.254,21.89c-6.346,-6.092 -2.334,-18.281 2.629,-22.766" style="fill:#191b3f;fill-rule:nonzero;"/><path d="M535.097,207.856c19.225,8.319 9.412,44.656 -9.634,45.532c2.372,-9.67 -0.766,-19.047 -4.38,-25.396c5.364,-6.017 11.42,-11.344 14.014,-20.136" style="fill:#191b3f;fill-rule:nonzero;"/><path d="M261.076,210.92c-4.489,6.021 -11.639,14.009 -7.88,25.396c-12.295,0.47 -4.924,-19.521 1.753,-22.767c-11.933,-2.483 -21.677,12.11 -28.898,20.138c-0.146,5.692 -3.866,7.809 -3.502,14.008c-6.164,-28.456 7.698,-49.398 28.894,-56.035c5.18,4.45 5.437,13.823 9.633,19.26" style="fill:#191b3f;fill-rule:nonzero;"/><path d="M537.506,182.923c18.974,1.75 28.565,42.722 12.255,56.916c1.824,-17.515 0.22,-32.436 -11.378,-38.528c1.858,-4.998 0.946,-14.194 -0.877,-18.388" style="fill:#191b3f;fill-rule:nonzero;"/><path d="M463.274,130.127c-15.755,3.762 -31.702,7.354 -40.42,17.557c-4.96,-0.694 -6.049,-5.611 -8.294,-9.273c11.188,-7.14 33.48,-12.613 48.714,-8.284" style="fill:#191b3f;fill-rule:nonzero;"/><path d="M526.998,154.699c-6.857,-2.554 -12.552,-13.646 -18.388,-20.14c-19.844,-0.838 -42.281,-13.097 -68.298,-9.631c-9.883,1.314 -19.224,9.196 -28.017,4.379c22.182,-39.985 125.101,-43.523 114.703,25.392" style="fill:#191b3f;fill-rule:nonzero;"/><path d="M244.809,295.383c-2.554,-0.912 -5.693,-1.023 -8.5,-2.629c-20.176,-11.49 -45.896,-44.215 -34.15,-70.045c2.444,-29.115 18.573,-52.027 47.282,-57.791c1.425,1.425 -0.766,3.648 0,7.008c-37.032,1.895 -59.506,61.069 -34.146,93.686c1.204,-7.699 -6.605,-16.598 -7.881,-28.017c-3.577,-32.254 17.586,-55.822 40.274,-63.044c1.607,3.941 1.899,9.192 2.629,14.009c-34.769,6.128 -41.698,58.883 -24.518,90.185c6.241,-3.795 -2.33,-10.325 -2.623,-15.758c4.229,1.749 4.012,5.397 7.005,8.753c4.268,4.817 10.25,5.074 14.884,8.758c3.393,2.7 3.393,9.338 8.754,8.754c4.964,-1.276 -1.934,-5.509 0,-6.129c3.724,0.766 7.187,1.276 10.4,1.607" style="fill:#191b3f;fill-rule:nonzero;"/><path d="M206.245,332.339c-1.531,-0.947 -3.064,-1.824 -4.086,-2.811c-5.547,-5.251 -13.681,-14.81 -21.013,-23.639c-10.436,-12.587 -21.452,-25.029 -20.14,-45.531c1.022,-16.162 15.871,-29.989 32.399,-34.146c1.896,6.057 -2.847,10.214 -3.505,15.757c-2.843,23.608 14.628,49.182 35.898,48.159c4.967,1.35 10.325,7.663 15.469,9.74" style="fill:#191b3f;fill-rule:nonzero;"/><path d="M199.932,342.699c-1.75,-0.982 -3.976,-1.566 -5.65,-2.665c-12.591,-15.722 -26.087,-30.571 -31.524,-53.409c13.243,16.674 26.304,33.565 41.264,48.561" style="fill:#191b3f;fill-rule:nonzero;"/><path d="M197.196,352.843c-2.188,-1.753 -5.322,-2.701 -7.296,-4.05c-16.56,-11.383 -42.063,-34.257 -33.269,-63.044c10.869,23.567 22.398,46.48 41.663,61.657" style="fill:#191b3f;fill-rule:nonzero;"/><path d="M197.891,373.308c-2.263,-2.188 -5.619,-3.539 -7.991,-5.251c-11.601,-8.501 -22.069,-19.739 -32.394,-30.647c0.072,-8.538 -3.979,-12.952 -3.505,-21.891c8.828,13.243 18.861,25.029 31.523,35.026c3.246,2.591 6.784,6.198 11.202,7.442" style="fill:#191b3f;fill-rule:nonzero;"/><path d="M201.578,390.419c-8.248,-7.114 -17.621,-13.242 -25.688,-20.615c-8.059,-7.402 -17.436,-15.504 -21.013,-27.14c14.703,8.243 25.467,27.653 43.89,35.278" style="fill:#191b3f;fill-rule:nonzero;"/><path d="M197.196,399.903c-1.966,-1.019 -4.45,-1.677 -6.42,-2.078c-14.301,-11.418 -31.776,-24.261 -35.898,-42.906c1.496,-1.018 5.657,4.126 8.757,7.006c9.228,8.575 21.412,18.425 29.77,28.02c2.99,-0.219 4.703,2.335 6.492,3.03" style="fill:#191b3f;fill-rule:nonzero;"/><path d="M193.95,417.271c-1.058,-0.437 -2.191,-0.84 -3.174,-1.057c-7.731,-6.862 -13.899,-15.289 -22.767,-21.016c-3.648,-8.609 -9.484,-15.033 -11.379,-25.394c12.291,12.955 24.077,26.416 40.858,34.881" style="fill:#191b3f;fill-rule:nonzero;"/><path d="M190.484,428.216c-6.164,-6.968 -19.189,-10.469 -18.968,-24.261c7.696,4.962 14.044,11.161 21.269,16.598" style="fill:#191b3f;fill-rule:nonzero;"/><path d="M188.225,440.219c-5.145,-5.804 -10.945,-11.568 -11.458,-18.754c4.454,3.357 7.77,7.845 12.805,10.617" style="fill:#191b3f;fill-rule:nonzero;"/><path d="M604.855,378.416c14.229,-2.081 23.9,-15.796 31.595,-26.999c3.54,19.521 -11.129,36.558 -29.737,38.347" style="fill:#191b3f;fill-rule:nonzero;"/><path d="M601.028,361.49c3.862,0.726 9.334,-2.811 11.78,-4.817c7.082,-5.729 17.737,-19.592 19.267,-28.894c0.877,-5.362 -0.663,-9.886 0,-14.885c6.563,11.125 -4.525,24.262 3.499,31.521c-4.411,10.106 -11.672,21.817 -21.013,27.144c-2.809,1.601 -8.685,1.058 -10.29,3.829" style="fill:#191b3f;fill-rule:nonzero;"/><path d="M595.77,345.506c1.823,-0.398 3.577,-2.078 4.783,-2.843c11.343,-7.517 19.914,-27.472 25.388,-42.03c11.421,20.358 -5.907,53.191 -25.647,58.191" style="fill:#191b3f;fill-rule:nonzero;"/><path d="M590.006,332.848c5.295,-0.876 12.043,-8.063 16.673,-9.448c2.557,-5.034 7.37,-7.806 10.511,-12.26c-2.956,11.786 -12.625,23.532 -22.509,31.67" style="fill:#191b3f;fill-rule:nonzero;"/><path d="M580.814,315.886c4.667,1.058 10.839,-3.175 13.61,-5.619c12.441,-10.944 24.66,-40.972 18.385,-59.541c6.056,4.778 11.784,11.455 13.131,20.137c1.716,10.874 -6.198,19.702 -4.375,29.771c-8.721,11.966 -18.425,22.912 -33.454,28.602" style="fill:#191b3f;fill-rule:nonzero;"/><path d="M576.289,307.129c1.568,-0.766 2.886,-2.081 4.126,-2.993c14.151,-10.104 21.924,-33.853 27.141,-50.783c0.219,-0.766 -0.329,-3.175 -0.877,-2.626c2.666,-2.701 4.384,11.091 4.384,11.383c0.654,19.991 -11.859,40.057 -25.396,49.907c-3.214,1.753 -5.217,-0.691 -7.076,-0.363" style="fill:#191b3f;fill-rule:nonzero;"/><path d="M571.036,294.687c1.64,-0.876 3.065,-2.771 4.121,-3.683c11.235,-9.816 21.71,-30.28 26.27,-47.282c6.528,2.152 -3.211,7.261 1.754,11.382c-6.091,19.628 -14.009,37.396 -28.423,48.74" style="fill:#191b3f;fill-rule:nonzero;"/><path d="M568.851,286.953c2.444,-1.129 4.887,-2.882 6.307,-3.83c1.387,3.356 -2.622,4.56 -5.652,6.495" style="fill:#191b3f;fill-rule:nonzero;"/><path d="M562.28,274.294c1.46,-1.713 2.845,-3.719 4.126,-5.18c6.419,-7.407 15.939,-16.564 17.507,-28.894c1.645,-12.844 -1.568,-25.976 -9.627,-33.273c0.507,-5.764 -2.044,-8.465 -1.751,-14.008c16.053,9.558 27.067,27.507 23.642,52.532c-2.337,17.002 -17.223,29.225 -27.15,37.652c-0.326,0.074 -0.653,0.11 -0.912,0.146" style="fill:#191b3f;fill-rule:nonzero;"/><path d="M545.208,273.892c0.548,-1.713 1.054,-3.428 1.931,-4.778c16.311,-11.71 25.282,-30.754 27.147,-56.912c5.58,9.082 8.387,21.669 5.252,33.27c-3.064,11.347 -15.982,18.426 -22.003,27.362" style="fill:#191b3f;fill-rule:nonzero;"/><path d="M567.283,196.441c-2.046,-5.911 -7.882,-9.449 -6.136,-17.511c-7.006,-13.354 -16.266,-20.906 -35.021,-21.017c2.594,7.044 6.421,12.843 8.758,20.14c25.678,6.203 31.152,48.703 15.759,69.171c-3.026,0.73 -3.683,-1.642 -5.251,0c-2.564,7.082 -5.821,14.747 -10.523,21.432c0.619,0.889 1.097,1.863 1.41,2.918l3.927,1.954c3.505,-5.508 7.374,-10.727 13.06,-14.044c12.079,-15.252 22.005,-40.096 14.017,-63.043" style="fill:#191b3f;fill-rule:nonzero;"/><path d="M491.15,251.809c4.815,-8.572 15.393,-11.454 21.889,-18.387c10.108,-13.827 21.272,-19.556 21.017,-39.401c-0.258,-22.292 -18.135,-54.578 -43.78,-58.665c-13.9,-2.226 -36.813,-2.881 -51.66,5.252c-2.956,1.607 -4.889,5.985 -7.88,8.758c-11.056,10.25 -29.479,26.706 -30.649,44.655c-0.22,3.538 1.534,7.296 1.754,11.383c0.837,16.161 -3.284,34.221 -13.135,39.401c-1.935,-4.852 3.686,-8.063 5.256,-12.259c13.096,-34.951 -12.08,-59.904 -29.772,-74.423l-5.252,0c-5.294,-6.859 -12.476,-9.559 -19.267,-10.507c-27.725,-3.905 -41.371,10.25 -53.406,23.639c-2.994,3.32 -11.165,14.921 -12.264,17.511c-3.316,7.81 -5.029,23.568 -4.375,34.149c0.44,7.368 3.211,14.266 2.628,21.014c-1.276,14.265 -23.057,20.795 -34.15,9.63c-2.481,-2.515 -6.895,-10.468 -1.75,-14.882c2.736,3.1 1.678,9.993 4.379,13.132c17.547,11.384 35.424,-4.378 26.265,-23.642c4.634,23.314 -22.874,21.309 -27.141,7.008c2.005,-2.665 2.443,-6.898 3.502,-10.511c-20.066,5.401 -20.722,45.643 0,50.785c1.35,-1.569 1.168,-4.667 5.254,-3.503c0.218,3.613 -1.168,3.431 0,6.132c9.862,1.295 18.078,3.505 25.705,3.491c2.619,-1.787 6.05,-2.465 10.094,-1.156c11.997,3.887 27.915,-25.445 38.499,-31.547c6.563,-3.785 17.387,-0.684 18.755,7.63c1.679,10.162 0.89,9.242 11.087,11.181c7.604,1.445 14.657,5.194 22.249,6.425c2.342,0.379 4.622,0.248 6.895,-0.029c2.73,-5.117 8.935,-8.214 14.701,-6.429c1.085,0.337 2.193,0.584 3.312,0.791c0.189,-0.131 0.327,-0.289 0.527,-0.416c8.316,-5.347 18.249,-9.162 25.724,-15.706c5.458,-4.777 8.871,-11.664 16.189,-13.864c9.616,-2.891 15.955,5.656 19.336,13.173c3.188,7.09 2.232,14.736 4,21.91l64.464,-2.715c6.748,-5.836 11.238,-13.716 12.655,-22.51c-11.267,14.12 -37.828,10.104 -51.655,3.502" style="fill:#191b3f;fill-rule:nonzero;"/><path d="M399.601,179.98c-9.374,-23.307 -37.542,-27.832 -60.414,-37.647c22.651,-15.873 56.876,2.151 65.669,23.639c7.695,-3.827 -3.506,-13.681 -7.006,-16.635c-16.237,-13.642 -44.584,-24.334 -64.795,-7.88c-29.185,-2.918 -43.816,22.327 -60.414,37.651c-4.012,9.413 -5.365,21.487 -7.881,32.396c-6.056,-10.763 -13.937,-27.434 -9.633,-42.903c9.234,-14.814 24.81,-30.283 49.91,-23.642c9.232,-16.09 21.599,-32.977 43.78,-35.899c22.913,-2.993 42.576,9.812 55.162,21.89c2.118,0.363 1.895,-1.604 4.375,-0.877c3.103,7.699 8.687,12.919 11.388,21.013c-7.883,10.802 -16.859,20.508 -21.892,34.149c-8.323,-8.61 -15.833,-18.023 -25.395,-25.391c9.232,1.86 19.885,9.851 22.768,21.013c2.115,0.367 1.894,-1.604 4.378,-0.877" style="fill:#191b3f;fill-rule:nonzero;"/><path d="M198.767,377.943c0.873,4.193 1.86,8.39 2.811,12.477" style="fill:#191b3f;fill-rule:nonzero;"/><path d="M196.726,357.986c-0.186,5.07 0.292,10.215 1.165,15.321" style="fill:#191b3f;fill-rule:nonzero;"/><path d="M198.294,347.405c-0.514,1.789 -0.841,3.613 -1.099,5.437" style="fill:#191b3f;fill-rule:nonzero;"/><path d="M204.023,335.186c-0.77,1.058 -1.46,2.224 -2.156,3.427c-0.73,1.35 -1.35,2.702 -1.934,4.086" style="fill:#191b3f;fill-rule:nonzero;"/><path d="M241.268,299.868c-0.763,1.642 -1.276,3.502 -1.311,5.437c-0.256,12.074 -8.572,11.892 -17.985,16.089c-6.313,2.807 -11.529,6.128 -15.726,10.945" style="fill:#191b3f;fill-rule:nonzero;"/><path d="M264.219,284.73c-0.114,0.107 -0.221,0.253 -0.331,0.364c-2.99,3.32 -6.167,7.371 -11.163,7.442c-3.027,0.036 -5.729,1.094 -7.916,2.847" style="fill:#191b3f;fill-rule:nonzero;"/><path d="M189.572,432.082c-0.584,2.736 -1.055,5.437 -1.347,8.137" style="fill:#191b3f;fill-rule:nonzero;"/><path d="M192.785,420.553c-0.876,2.589 -1.646,5.108 -2.301,7.663" style="fill:#191b3f;fill-rule:nonzero;"/><path d="M197.488,404.685c0.15,0.947 0.328,1.859 0.549,2.771c-1.497,3.321 -2.882,6.566 -4.087,9.815" style="fill:#191b3f;fill-rule:nonzero;"/><path d="M199.897,392.975c-1.714,1.969 -2.516,4.378 -2.701,6.928" style="fill:#191b3f;fill-rule:nonzero;"/><path d="M557.535,272.834c-2.915,-0.399 -5.979,0.075 -8.423,1.351c-1.317,-0.072 -2.594,-0.218 -3.904,-0.293" style="fill:#191b3f;fill-rule:nonzero;"/><path d="M568.115,283.269c-0.07,-0.474 -0.177,-0.947 -0.255,-1.422c-0.542,-3.541 -2.735,-6.091 -5.58,-7.553" style="fill:#191b3f;fill-rule:nonzero;"/><path d="M569.506,289.618c-0.257,-0.876 -0.479,-1.753 -0.655,-2.665" style="fill:#191b3f;fill-rule:nonzero;"/><path d="M574.758,303.844c-1.348,-3.029 -2.63,-6.018 -3.722,-9.157" style="fill:#191b3f;fill-rule:nonzero;"/><path d="M578.591,311.654c-0.805,-1.533 -1.532,-2.993 -2.302,-4.525" style="fill:#191b3f;fill-rule:nonzero;"/><path d="M588.11,329.236c-2.408,-4.485 -4.889,-8.9 -7.297,-13.35" style="fill:#191b3f;fill-rule:nonzero;"/><path d="M594.681,342.81c-1.426,-3.396 -2.993,-6.713 -4.675,-9.962" style="fill:#191b3f;fill-rule:nonzero;"/><path d="M600.295,358.825c-1.275,-4.487 -2.807,-8.938 -4.525,-13.318" style="fill:#191b3f;fill-rule:nonzero;"/><path d="M604.272,375.388c-0.912,-4.672 -2.003,-9.337 -3.243,-13.899" style="fill:#191b3f;fill-rule:nonzero;"/><path d="M606.714,389.764c-0.583,-3.795 -1.126,-7.59 -1.858,-11.348" style="fill:#191b3f;fill-rule:nonzero;"/><path d="M494.695,160.739c-29.625,1.388 -56.443,13.536 -74.427,31.522c-5.437,16.455 -11.635,32.142 -12.257,53.412c5.033,-19.481 14.594,-34.44 21.015,-52.536c13.569,-18.862 73.878,-27.508 78.802,5.253c-6.713,-4.086 -8.684,-12.915 -15.763,-16.635c-14.991,-4.342 -36.919,-2.737 -49.03,5.253c-15.833,14.812 -25.393,35.898 -30.648,61.29c5.18,-4.45 4.963,-14.301 14.885,-14.009c9.523,-23.202 46.007,-29.405 76.18,-23.64c3.135,16.563 3.355,41.444 -14.012,42.904c-1.094,-4.89 4.892,-2.7 6.131,-5.255c4.524,-7.587 8.059,-19.335 5.251,-31.519c-23.2,-10.144 -60.524,-3.357 -67.422,16.635c18.427,0.475 41.994,2.81 46.409,20.139c-1.389,2.225 -4.161,6.347 -7.006,4.377c-0.436,-3.648 2.552,-3.867 1.754,-7.88c-7.371,-10.908 -29.698,-17.184 -42.906,-12.259c-9.851,3.686 -10.399,14.704 -18.388,16.637c-3.501,7.078 -10.724,14.885 -17.51,15.76c2.697,-7.479 11.525,-9.557 11.381,-17.511c-6.02,-10.472 -0.511,-23.787 2.628,-36.775c5.255,-21.852 3.537,-24.152 19.264,-35.899c14.265,-10.652 44.177,-23.64 65.669,-19.264" style="fill:#030405;fill-rule:nonzero;"/><path d="M354.436,272.577c-4.669,-1.277 0.401,-6.13 0,-8.756c-7.66,-11.748 -16.64,-32.981 -34.147,-31.522c-8.575,0.694 -16.238,7.443 -23.643,11.384c-6.055,12.623 -8.9,28.456 -23.642,32.396c1.062,-4.452 6.167,-4.926 8.757,-7.881c4.415,-5.034 5.8,-11.746 7.006,-20.138c4.67,-11.054 23.057,-13.498 32.399,-20.139c1.311,-0.912 11.856,2.882 14.009,4.378c7.513,5.143 15.213,16.965 20.136,26.267c2.188,4.124 5.986,12.806 -0.875,14.011" style="fill:#030405;fill-rule:nonzero;"/><path d="M371.073,266.448c-2.009,-4.087 2.953,-7.881 7.006,-8.755c2.842,-8.283 8.39,-14.667 6.126,-25.393c-3.173,-15.104 -12.874,-38.307 -25.39,-43.779c-13.645,-5.946 -40.751,-10.033 -53.411,-4.379c-12.804,5.692 -16.745,24.006 -19.264,42.029c-7.769,-16.125 7.991,-30.207 12.261,-42.904c19.915,-9.997 46.914,-0.619 66.545,2.627c8.21,11.346 24.551,34.549 22.762,55.161c-0.837,9.486 -7.699,23.787 -16.635,25.392" style="fill:#030405;fill-rule:nonzero;"/><path d="M358.815,262.069c-4.561,-5.108 2.882,-7.332 3.501,-12.258c0.983,-7.735 -6.932,-25.392 -14.885,-34.147c-7.77,-8.537 -25.21,-14.265 -33.274,-8.756c0.041,3.83 0.511,8.098 -1.747,9.631c-5.074,-3.137 -1.534,-13.864 1.747,-16.636c20.141,-0.912 35.319,11.347 43.781,28.019c5.654,11.128 13.062,25.283 0.877,34.147" style="fill:#030405;fill-rule:nonzero;"/><path d="M166.271,273.213c1.169,0.292 1.386,1.534 2.629,1.753c9.374,18.97 24.914,36.191 45.529,43.779c3.431,1.275 9.121,-1.204 10.507,4.377c-6.784,2.444 -17.109,-2.991 -23.643,-7.004c-6.017,-3.721 -15.027,-11.565 -21.013,-17.511c-6.784,-6.75 -16.674,-17.075 -14.009,-25.394" style="fill:#030405;fill-rule:nonzero;"/><path d="M184.659,235.564c-12.769,25.611 14.265,61.436 36.775,68.296c4.016,1.24 9.231,-1.897 10.507,3.502c-9.962,3.102 -22.767,-5.033 -30.647,-12.258c-14.737,-13.498 -28.602,-34.184 -21.89,-56.913c-0.253,-1.423 0.84,-1.496 0.877,-2.627l4.378,0Z" style="fill:#030405;fill-rule:nonzero;"/><path d="M411.126,257.963c-1.604,3.067 -3.795,5.89 -7.082,7.329c13.855,0.363 17.892,-7.642 27.305,-15.949c9.989,-8.816 20.358,-4.831 25.659,6.784c2.679,5.862 3.462,12.421 4.068,18.772c6.898,0.407 15.948,-0.734 20.978,-5.519c-6.078,-3.552 -11.493,-7.455 -15.045,-13.666c-2.677,-4.673 -3.61,-10.305 -7.75,-14.049c-10.546,-9.544 -28.025,-6.381 -36.875,3.304c-4.767,5.219 -8.478,10.612 -14.3,14.818" style="fill:#191b3f;fill-rule:nonzero;"/><path d="M317.489,245.801c12.143,-0.34 19.182,0.858 22.232,13.271c2.531,10.329 5.915,17.19 17.116,19.673c9.456,2.097 18.868,0 27.277,-4.51c3.84,-2.061 16.901,-8.77 8.187,-10.234c-5.113,-0.861 -12.597,2.583 -17.757,3.256c-5.451,0.711 -10.773,0.71 -16.214,-0.069c-4.316,5.957 -6.253,-3.245 -7.742,-6.076c-2.228,-4.247 -5.316,-9.672 -8.726,-13.177c-5.845,-6.004 -21.49,-12.609 -26.81,-2.134" style="fill:#191b3f;fill-rule:nonzero;"/><path d="M531.521,262.828c0.665,0.967 0.896,2.613 0.5,4.15c-15.864,13.71 -39.849,16.054 -59.539,10.618c-5.284,-1.459 -8.798,-3.517 -10.188,-9.175c0.736,-0.641 1.553,-1.555 2.337,-1.945" style="fill:#191b3f;fill-rule:nonzero;"/><path d="M533.948,261.611c-8.208,17.705 -28.152,19.837 -45.353,19.877c-8.195,0.018 -16.898,1.196 -23.664,-4.402c-9.52,-7.883 -5.808,-14.759 5.796,-14.046c18.822,1.154 35.586,7.711 53.496,-1.429" style="fill:#191b3f;fill-rule:nonzero;"/><path d="M253.032,268.907c-3.595,-0.087 -12.972,-3.764 -12.192,3.045c0.585,5.146 9.049,4.591 12.698,5.362c1.739,-3.255 0.528,-7.045 -3.542,-7.19" style="fill:#191b3f;fill-rule:nonzero;"/><path d="M269.449,278.028c23.48,9.042 42.052,-4.076 45.04,-28.379c-7.22,6.647 -14.214,13.554 -21.515,20.085c-2.781,2.491 -6.748,5.62 -10.388,6.68c-3.937,1.146 -8.505,-0.953 -11.918,1.614" style="fill:#191b3f;fill-rule:nonzero;"/><path d="M564.353,271.948c-6.209,1.885 -4.979,9.587 1.208,10.352c7.009,0.865 7.585,-7.207 2.439,-10.352" style="fill:#191b3f;fill-rule:nonzero;"/><path d="M557.664,268.3c3.126,3.804 -7.938,9.358 -11.395,7.785c-7.874,-3.577 6.225,-9.306 10.788,-8.394" style="fill:#191b3f;fill-rule:nonzero;"/><path d="M584.419,314.511c-17.3,-6.034 4.383,24.411 7.902,8.513" style="fill:#191b3f;fill-rule:nonzero;"/><path d="M593.541,331.536c-5.93,-3.842 -9.179,6.422 -3.349,9.493c7.331,3.861 9.12,-4.96 9.334,-10.006c-1.542,-0.137 -3.193,0.383 -4.161,1.122" style="fill:#191b3f;fill-rule:nonzero;"/><path d="M604.485,342.48c-6.434,0.213 -20.155,8.422 -9.079,14.339c10.132,5.411 17.003,-8.345 12.727,-16.163" style="fill:#191b3f;fill-rule:nonzero;"/><path d="M606.31,360.115c-9.777,-0.915 -11.108,12.842 -2.845,13.997c8.567,1.2 22.567,-16.836 10.141,-13.39" style="fill:#191b3f;fill-rule:nonzero;"/><path d="M610.561,377.139c-1.979,0.704 -4.786,1.286 -7.188,1.927c-3.592,4.912 0.52,10.194 5.787,9.883c5.137,-0.305 13.853,-5.675 14.172,-11.2" style="fill:#191b3f;fill-rule:nonzero;"/><path d="M200.741,326.063c3.128,5.412 12.538,10.362 17.287,3.281c5.351,-7.977 -8.765,-8.387 -13.029,-3.888" style="fill:#191b3f;fill-rule:nonzero;"/><path d="M199.526,331.536c3.82,1.706 11.315,4.624 4.004,7.999c-5.204,2.401 -13.239,-6.082 -7.046,-7.39" style="fill:#191b3f;fill-rule:nonzero;"/><path d="M191.011,343.089c2.337,0.334 11.123,0.926 8.75,5.46c-2.251,4.305 -8.397,-2.029 -10.574,-3.636" style="fill:#191b3f;fill-rule:nonzero;"/><path d="M191.011,357.074c12.348,-2.64 11.957,19.921 0,8.513" style="fill:#191b3f;fill-rule:nonzero;"/><path d="M597.594,385.799c-6.886,-5.572 -10.516,-12.836 -8.086,-21.147c-4.832,-4.874 -6.695,-10 -5.741,-16.583c-3.708,-2.719 -7.029,-6.459 -7.053,-11.26c-0.041,-7.849 -1.771,-9.81 -5.463,-17.333c-4.224,-8.599 -11.408,-17.387 -8.864,-25.973c-3.162,-2.615 -5.614,-5.145 -7.06,-8.814c-4.589,-0.239 -8.387,-1.436 -10.923,-4.735c-5.133,0.72 -9.432,-0.164 -12.784,-3.103c-11.83,6.693 -22.867,14.656 -36.413,17.946c-12.369,3.002 -31.883,-0.123 -38.948,-12.182c-1.374,-2.349 -2.019,-6.644 -2.745,-11.043c-0.567,-1.938 -0.932,-3.956 -1.166,-6.021c-0.272,-1.138 -0.577,-2.229 -0.94,-3.211c-0.485,-0.987 -0.976,-1.955 -1.487,-2.904c-1.372,-1.928 -3.269,-2.849 -6.073,-1.907c-7.176,2.411 -13.461,6.501 -20.252,9.749c-7.517,3.595 -14.754,6.378 -22.41,5.292c-2.714,2.524 -5.33,4.731 -7.396,6.456c-15.013,12.521 -34.409,13.068 -49.673,1.45c-3.191,-2.43 -5.895,-5.425 -9.044,-7.891c-8.915,-6.98 -17.345,0.824 -25.122,5.585c-7.881,4.823 -15.365,9.027 -24.594,10.413c-2.729,0.409 -5.612,0.466 -8.569,0.287c-3.277,4.569 -7.748,8.007 -13.602,10.198c-3.62,1.352 -7.963,2.765 -12.291,3.322c-2.519,13.136 -12.662,24.884 -26.123,25.561c-2.437,5.794 -7.461,11.421 -12.919,13.663c-1.346,5.056 -4.026,9.498 -8.147,12.887c0.979,2.138 1.621,4.308 1.991,6.499c2.636,8.355 2.79,18.696 0.82,28.506c4.567,6.818 3.145,15.453 -1.657,23.229c-1.464,2.366 -6.296,5.176 -6.11,8.316c0.163,2.832 0.356,5.55 0.171,8.382c-0.357,5.302 -3.357,10.736 -6.335,15.358c10.122,16.812 16.275,35.413 27.883,51.677c9.886,13.828 32.613,24.335 51.659,32.396c50.235,21.27 125.646,48.854 182.998,39.4c30.937,-12.801 59.209,-38.34 86.683,-62.165c8.607,-7.44 16.967,-17.909 24.515,-28.018c7.916,-10.615 18.282,-19.883 23.64,-29.771c7.659,-14.089 13.659,-32.555 14.208,-50.449c-4.85,-2.593 -6.76,-6.524 -6.578,-12.062" style="fill:#968dc4;fill-rule:nonzero;"/><path d="M222.77,513.785c1.894,0.73 3.099,2.152 2.625,5.255c-1.824,-0.805 -2.661,-2.592 -2.626,-5.255" style="fill:#030405;fill-rule:nonzero;"/><path d="M205.255,493.644c4.015,2.156 9.563,4.343 7.881,9.634c-4.083,-1.349 -9.962,-4.962 -7.881,-9.634" style="fill:#030405;fill-rule:nonzero;"/><path d="M433.786,481.389c20.685,-8.355 33.344,26.229 7.003,23.639c0.435,-6.274 -3.903,-7.771 -7.003,-10.507c-10.144,4.742 -13.425,19.047 -12.261,32.396c43.997,-6.748 86.209,-21.27 116.452,-45.528c4.088,-3.285 6.461,-9.302 12.261,-10.508c2.516,4.415 -3.249,7.37 -6.129,9.631c-9.486,7.373 -21.888,15.833 -34.148,21.015c-10.365,8.903 -26.157,12.369 -40.278,17.513c3.429,23.236 -25.759,24.587 -44.655,25.392c-1.204,-4.342 -3.427,-7.665 -3.503,-13.137c-9.522,-1.057 -7.805,9.122 -10.506,14.886c-10.069,6.274 -27.433,3.065 -38.527,-0.876c-1.275,-3.391 -2.003,-7.332 -1.75,-12.256c-21.598,-2.811 -44.365,-5.657 -65.67,-8.757c1.059,-3.064 1.901,-6.274 5.256,-7.006c1.967,1.825 2.662,4.924 5.251,6.13c30.975,2.665 73.037,12.149 102.444,4.378c0.657,-4.742 -1.093,-7.076 -0.877,-11.383c-3.39,-0.69 -5.472,-2.701 -9.63,-2.626c0.218,-5.764 0,-11.091 -2.625,-14.009c-7.114,-0.11 -6.862,7.151 -12.259,8.754c-9.888,-6.748 -7.222,-23.094 6.13,-24.515c3.685,-15.031 29.622,-18.861 35.024,-2.626" style="fill:#030405;fill-rule:nonzero;"/><path d="M368.994,453.371c-0.842,2.078 -1.534,4.305 -5.255,3.501c-0.66,-3.611 2.988,-5.51 5.255,-3.501" style="fill:#030405;fill-rule:nonzero;"/><path d="M367.24,447.24c-1.206,2.298 -2.188,4.817 -5.252,5.255c-0.619,-3.975 2.623,-7.224 5.252,-5.255" style="fill:#030405;fill-rule:nonzero;"/><path d="M414.522,444.615c9.232,3.32 5.946,19.153 15.756,21.889c-5.214,3.428 -16.486,-2.846 -25.386,-0.877c0.293,-2.918 3.976,-2.443 7.004,-2.625c1.896,-7.625 -5.764,-9.74 -3.506,-14.885c7.921,1.421 1.754,16.926 13.135,14.885c-0.291,-7.844 -7.991,-12.038 -7.003,-18.387" style="fill:#030405;fill-rule:nonzero;"/><path d="M353.231,512.031c-15.651,-0.252 -33.238,3.03 -49.03,-1.748c-38.383,-11.639 -68.662,-48.849 -85.81,-79.678c-2.847,-5.143 -7.15,-12.698 -7.008,-15.762c0.584,-12.112 29.151,-26.157 45.532,-26.268c39.512,-0.253 66.325,19.374 83.184,43.78c3.205,4.634 7.297,9.412 9.631,14.884c5.432,12.845 14.881,40.933 3.501,55.163c-0.947,4.087 2.299,6.893 0,9.629" style="fill:#030405;fill-rule:nonzero;"/><path d="M366.363,442.861c-1.346,2.444 -3.501,4.088 -6.128,5.255c-7.004,-39.399 -20.358,-72.455 -60.418,-78.801l0,-2.629c35.682,6.057 56.478,34.588 62.171,73.55c-0.442,2.771 4.011,0.654 4.375,2.625" style="fill:#030405;fill-rule:nonzero;"/><path d="M331.342,320.28c2.7,-4.013 -3.977,-14.119 0.875,-17.511c5.146,1.021 5.181,6.312 7.882,9.631c8.791,10.726 22.252,17.658 31.519,28.02c2.59,-8.683 -2.191,-20.832 1.749,-27.144c10.183,16.089 22.474,30.063 35.023,43.78c7.154,-9.192 7.517,-25.173 14.885,-34.147c1.974,6.2 0.367,15.978 0.877,23.641c9.815,-6.532 14.411,-18.279 24.52,-24.518c2.331,6.057 -0.405,14.047 -0.877,20.139c12.293,-10.764 22.145,-23.969 37.651,-31.523c0.217,9.268 -5.875,12.223 -7.006,20.139c9.848,-8.61 24.006,-13.242 36.777,-16.635c14.956,2.481 30.97,2.262 42.025,8.757c12.842,7.55 26.924,24.514 21.89,38.527c-14.957,-14.631 -37.465,-28.713 -62.166,-26.27c-29.917,2.956 -48.013,27.472 -66.546,41.154c-4.962,16.307 -6.31,33.636 0.877,49.03c1.97,-46.334 38.416,-73.181 85.809,-56.911c17.471,5.982 28.274,16.599 27.142,40.279c-1.497,31.009 -23.493,47.534 -38.529,64.791c-9.519,5.981 -28.638,11.745 -40.273,5.256c-3.834,0.871 -6.678,7.296 -9.634,6.126c-5.615,-7.915 -12.22,-17.328 -16.636,-27.144c-3.394,-7.513 -4.121,-15.177 -7.006,-24.516c-1.786,-5.762 -6.493,-10.686 -7.878,-16.634c-2.776,-11.896 -0.331,-29.04 0.872,-36.774c-14.151,11.383 -38.484,4.63 -54.282,-2.631c-18.276,-8.425 -31.704,-20.538 -49.911,-28.891c-27.104,-12.441 -83.072,-24.845 -110.321,-3.502c1.603,-15.909 18.676,-23.934 37.648,-25.394c-0.367,-6.821 -8.537,-1.202 -9.63,-7.879c2.333,-3.467 12.548,-2.154 21.014,-1.751c5.985,0.255 12.405,1.093 16.636,1.751c-1.974,-8.538 -10.146,-10.872 -11.386,-20.139c15.507,6.093 30.213,20.577 46.41,28.894" style="fill:#030405;fill-rule:nonzero;"/><path d="M341.848,498.9c-7.116,8.758 -22.257,1.023 -20.139,-8.757c2.3,-10.652 23.349,-6.199 20.139,8.757" style="fill:#030405;fill-rule:nonzero;"/><path d="M341.848,498.9c-7.116,8.758 -22.257,1.023 -20.139,-8.757c2.3,-10.652 23.349,-6.199 20.139,8.757" style="fill:#030405;fill-rule:nonzero;"/><path d="M341.848,498.9c-7.116,8.758 -22.257,1.023 -20.139,-8.757c2.3,-10.652 23.349,-6.199 20.139,8.757" style="fill:#030405;fill-rule:nonzero;"/><path d="M341.848,498.9c-7.116,8.758 -22.257,1.023 -20.139,-8.757c2.3,-10.652 23.349,-6.199 20.139,8.757" style="fill:#030405;fill-rule:nonzero;"/><path d="M341.848,498.9c-7.116,8.758 -22.257,1.023 -20.139,-8.757c2.3,-10.652 23.349,-6.199 20.139,8.757" style="fill:#030405;fill-rule:nonzero;"/><path d="M341.848,498.9c-7.116,8.758 -22.257,1.023 -20.139,-8.757c2.3,-10.652 23.349,-6.199 20.139,8.757" style="fill:#030405;fill-rule:nonzero;"/><path d="M341.848,498.9c-7.116,8.758 -22.257,1.023 -20.139,-8.757c2.3,-10.652 23.349,-6.199 20.139,8.757" style="fill:#030405;fill-rule:nonzero;"/><path d="M341.848,498.9c-7.116,8.758 -22.257,1.023 -20.139,-8.757c2.3,-10.652 23.349,-6.199 20.139,8.757" style="fill:#030405;fill-rule:nonzero;"/><path d="M341.848,498.9c-7.116,8.758 -22.257,1.023 -20.139,-8.757c2.3,-10.652 23.349,-6.199 20.139,8.757" style="fill:#030405;fill-rule:nonzero;"/><path d="M424.313,529.158c14.45,-1.315 26.488,-5.073 38.525,-8.758c3.36,0.987 3.031,7.406 1.755,10.506c-9.599,5 -22.801,11.056 -35.897,9.633c-3.214,-2.044 -4.161,-6.347 -4.383,-11.381" style="fill:#fff;fill-rule:nonzero;"/><path d="M452.842,499.498c-1.53,1.971 -5.287,1.716 -7.877,2.627c-6.894,-18.64 -25.795,-4.375 -25.392,11.382c-3.611,0.695 -4.488,-1.349 -7.881,-0.875c4.49,-15.36 -13.498,-19.482 -16.636,-7.879c-7.475,-3.501 -4.159,-17.585 6.13,-15.759c3.794,-18.279 26.597,-18.646 34.148,-3.503c10.107,-2.993 19.373,2.151 17.508,14.007" style="fill:#968dc4;fill-rule:nonzero;"/><path d="M350.181,508.281c-59.249,6.349 -91.613,-27.176 -117.329,-63.916c-3.214,-4.595 -17.992,-23.35 -17.515,-30.648c0.656,-10.067 27.584,-23.634 43.78,-23.634c27.876,0 53.006,12.619 70.043,30.64c14.522,15.362 26.637,42.432 25.396,63.923c-0.548,9.698 -6.092,11.779 -4.375,23.635" style="fill:#fff;fill-rule:nonzero;"/><path d="M476.596,482.181c-0.398,-7.701 -7.331,-11.091 -10.51,-16.639c-22.838,-39.985 -7.73,-99.855 43.781,-98.941c13.715,0.257 37.906,6.348 44.654,16.638c10.181,15.54 4.383,42.903 -4.376,56.912c-7.774,12.405 -27.219,35.061 -44.654,37.652c-14.159,2.114 -22.731,-7.992 -28.895,4.378" style="fill:#fff;fill-rule:nonzero;"/><path d="M292.122,297.34c15.285,8.063 28.46,18.241 42.027,28.019c4.091,-3.065 0.406,-11.529 0,-15.761c14.742,12.113 28.645,25.064 42.033,38.526c2.915,-7.15 -2.628,-15.432 -0.876,-26.266c7.767,11.199 19.553,20.904 28.018,32.395c2.259,3.066 4.012,9.376 8.758,8.757c-0.186,-8.794 4.595,-17.439 7.88,-25.393c4.445,4.123 -1.824,14.412 3.499,16.636c7.118,-8.646 13.425,-18.095 21.013,-26.267c3.028,7.223 -2.773,17.512 0,24.516c4.347,-0.328 3.87,-5.472 5.259,-8.755c8.935,-9.158 17.912,-18.279 28.017,-26.268c1.752,6.238 -6.97,13.9 -5.258,20.138c14.557,-7.297 25.174,-18.533 42.033,-20.138c7.403,-0.693 13.646,2.772 22.766,0.874c16.924,4.343 34.109,15.324 40.273,33.273c-2.515,0.985 -6.64,-4.267 -11.378,-7.003c-12.299,-7.043 -29.992,-14.303 -47.287,-14.887c-33.639,3.174 -50.783,29.808 -73.549,43.78c-6.491,3.975 -15.47,8.94 -26.265,7.881c-32.543,-3.176 -57.866,-31.631 -86.681,-42.03c-26.707,-8.646 -69.03,-16.89 -95.44,-3.501c8.935,-10.325 21.996,-16.051 40.272,-14.885c0.478,-6.312 -6.888,-4.78 -7.88,-9.632c12.663,0.877 22.987,0.62 34.153,3.502c-1.495,-8.136 -8.536,-10.726 -11.387,-17.511" style="fill:#191b3f;fill-rule:nonzero;"/><path d="M497.59,442.395c6.386,-0.288 16.236,4.56 16.64,13.135c0.877,17.876 -31.267,12.003 -28.018,-5.254c0.728,-3.795 4.813,-7.588 11.378,-7.881" style="fill:#030405;fill-rule:nonzero;"/><path d="M494.373,445.437c5.587,-2.696 16.789,2.776 14.886,12.26c-3.32,16.71 -31.921,-3.977 -14.886,-12.26" style="fill:#191b3f;fill-rule:nonzero;"/><path d="M344.389,492.765c-9.627,10.68 -28.625,0.032 -25.354,-12.223c3.541,-13.352 30.313,-6.519 25.354,12.223" style="fill:#030405;fill-rule:nonzero;"/><path d="M342.442,490.996c-7.115,8.757 -22.252,1.023 -20.135,-8.757c2.293,-10.654 23.346,-6.199 20.135,8.757" style="fill:#191b3f;fill-rule:nonzero;"/><path d="M373.425,533.102c0,0 30.156,1.103 36.789,0c-0.306,2.434 0.606,8.516 -1.824,10.642c-3.043,1.216 -32.835,1.52 -33.44,-1.217c-0.613,-2.736 -2.739,-3.649 -1.525,-9.425" style="fill:#fff;fill-rule:nonzero;"/><g opacity="0.24"><path d="M499.236,456.043c0,1.923 -1.485,3.487 -3.316,3.487c-1.831,0 -3.317,-1.564 -3.317,-3.487c0,-1.927 1.486,-3.487 3.317,-3.487c1.831,0 3.316,1.56 3.316,3.487" style="fill:#fff;fill-rule:nonzero;"/></g><g opacity="0.24"><path d="M339.728,485.369c0,1.927 -1.488,3.488 -3.321,3.488c-1.83,0 -3.312,-1.561 -3.312,-3.488c0,-1.927 1.482,-3.487 3.312,-3.487c1.833,0 3.321,1.56 3.321,3.487" style="fill:#fff;fill-rule:nonzero;"/></g><g opacity="0.24"><path d="M330.254,482.483c0,1.092 -0.95,1.977 -2.126,1.977c-1.176,0 -2.132,-0.885 -2.132,-1.977c0,-1.091 0.956,-1.977 2.132,-1.977c1.176,0 2.126,0.886 2.126,1.977" style="fill:#fff;fill-rule:nonzero;"/></g><g opacity="0.24"><path d="M501.724,449.649c0,1.092 -0.951,1.978 -2.128,1.978c-1.174,0 -2.129,-0.886 -2.129,-1.978c0,-1.09 0.955,-1.975 2.129,-1.975c1.177,0 2.128,0.885 2.128,1.975" style="fill:#fff;fill-rule:nonzero;"/></g><g opacity="0.24"><path d="M434.54,477.152c0.971,-5.979 -1.987,-13.959 -8.988,-13.503c0.679,-8.048 -5.171,-21.257 -14.59,-20.705c0.734,3.639 2.962,7.659 3.346,11.404c-4.351,-3.516 -7.428,-8.711 -13.381,-8.665c-0.889,6.454 8.091,8.475 7.02,15.938c-2.147,-0.897 -4.079,0.073 -6.088,-0.413c-1.628,1.973 -2.284,4.356 -1.824,6.979c0.575,0.411 1.557,0.66 2.205,1.07c-6.067,2.082 -9.317,9.917 -11.639,15.353c-5.034,0.542 -9.156,6.357 -8.016,11.492c1.057,4.78 6.067,6.972 7.086,4.106c-0.841,-5.903 4.839,-6.777 9.686,-7.246c0.611,-5.707 4.487,-10.484 11.363,-11.699c5.836,-1.029 11.89,-0.12 16.353,3.144c1.364,0.798 2.567,1.818 3.442,3.135c8.35,0.335 17.664,-2.047 22.254,7.392c-0.785,-6.759 -12.634,-20.049 -18.229,-17.782" style="fill:#030405;fill-rule:nonzero;"/></g><g opacity="0.24"><path d="M427.985,541.337c-1.425,-1.892 -1.632,-4.11 -1.66,-6.411c-0.05,-4.271 3.93,-5.935 7.103,-5.041c0.191,-0.078 0.358,-0.173 0.563,-0.235c4.547,-1.393 9.099,-1.835 13.71,-1.504c1.871,-0.422 3.716,-0.925 5.444,-1.232c0.691,-0.123 1.383,-0.129 2.052,-0.053c0.662,0.087 1.297,0.27 1.882,0.549c1.308,0.619 2.35,1.707 2.801,3.325c0.712,2.588 -0.799,5.962 -3.563,6.649c-0.015,0.146 -0.082,0.272 -0.111,0.415c-6.634,0.597 -17.487,2.909 -22.128,6.233c-2.459,-0.053 -4.368,-0.415 -6.093,-2.695m91.37,-44.716l1.824,-0.912c0.308,-0.334 0.599,-0.282 0.863,-0.191c-0.549,0.414 -1.118,0.81 -1.703,1.203c-0.291,-0.047 -0.599,-0.089 -0.984,-0.1m-112.929,44.716c-5.24,9.979 -20.625,6.851 -28.983,3.427c-2.08,-0.852 -4.311,-2.691 -4.019,-5.278c0.457,-3.962 2.281,-8.232 6.756,-8.923c2.564,-0.396 4.582,0.812 5.749,2.539l15.77,0c4.293,0 6.634,4.61 4.727,8.235m121.249,-51.314c-1.358,1.821 -3.075,3.472 -5.005,4.997c-4.505,0.029 -16.098,5.704 -22.532,10.885c-5.041,1.653 -9.783,2.946 -13.367,4.003c-3.164,0.936 -6.348,1.827 -9.542,2.707c-3.676,1.483 -7.382,2.824 -11.14,3.874c-1.924,0.54 -3.854,1.033 -5.79,1.501c-1.617,0.559 -3.235,1.121 -4.853,1.681c-0.555,0.569 -1.249,1.05 -2.126,1.378c-1.807,0.681 -3.628,1.289 -5.455,1.842c-0.143,0.046 -0.292,0.082 -0.434,0.126c-1.747,0.519 -3.496,0.997 -5.253,1.425c-22.167,5.405 -45.296,3.418 -68.098,3.974c-1.388,0.034 -2.793,-0.047 -4.189,-0.106c-14.643,1.673 -29.575,-0.328 -43.737,-4.443c-0.657,0.053 -1.325,0.037 -1.982,0.115c-2.08,0.252 -3.519,-0.56 -4.352,-1.824l-10.241,0c4.572,14.325 41.616,13.12 53.678,13.818c-3.398,14.466 9.629,18.595 21.792,18.966c6.738,0.208 33.757,0.853 31.402,-8.953c8.754,9.118 38.551,7.003 48.854,0.726c7.763,-4.733 3.282,-12.903 9.522,-18.449c0.757,-0.671 1.716,-1.263 2.751,-1.825c10.344,-1.75 21.099,-5.289 29.216,-9.667c8.549,-4.616 28.855,-21.659 29.025,-31.693c-2.205,2.279 -5.062,3.772 -8.144,4.942" style="fill:#030405;fill-rule:nonzero;"/></g><g opacity="0.24"><path d="M639.75,383.523c1.653,8.893 -17.385,17.701 -24.467,21.137c-0.445,2.28 -0.521,5.676 0.027,7.959c12.105,-4.16 31.393,-2.423 43.522,0.246c-7.725,5.764 -11.648,12.153 -2.07,18.151c-17.634,-5.381 -15.458,3.669 -6.161,14.165c-9.825,-5.991 -34.08,-8.955 -22.798,9.75c-12.857,-1.334 -24.388,0.082 -36.277,-5.946c10.432,-16.64 13.611,-35.84 14.617,-55.292c8.771,-1.712 29.461,-17.431 36.343,-9.258" style="fill:#030405;fill-rule:nonzero;"/></g><g opacity="0.24"><path d="M212.901,416.358c1.004,48.375 35.492,81.302 81.559,92.745c11.601,2.883 23.425,3.219 35.321,3.026c-45.96,-3.858 -72.556,-34.391 -98.831,-68.083c-6.684,-8.575 -12.641,-17.343 -18.049,-26.776" style="fill:#030405;fill-rule:nonzero;"/></g><g opacity="0.24"><path d="M299.547,367.107c36.034,-6.188 62.833,24.44 69.496,57.901c1.857,9.317 0.669,18.474 -1.247,27.675c-9.998,-2.117 -10.91,-32.794 -15.221,-41.338c-7.438,-14.759 -14.793,-24.737 -28.758,-34.323c-8.059,-5.529 -15.769,-6.583 -25.107,-9.206c0.608,-1.216 1.371,-0.421 2.661,-0.709" style="fill:#030405;fill-rule:nonzero;"/></g><g opacity="0.24"><path d="M440.918,378.963c0.705,-0.447 1.49,-1.422 2.572,-1.713c-3.177,6.461 -10.642,4.578 -14.286,9.654c-3.717,5.182 -0.727,16.118 0.862,21.702c2.773,9.744 11.316,26.467 22.621,27.879c-0.874,-10.511 -8.068,-18 -8.109,-29.107c-0.037,-9.685 5.246,-21.758 -0.169,-30.993c-2.771,-0.696 -3.954,0.481 -5.315,2.578" style="fill:#030405;fill-rule:nonzero;"/></g><g opacity="0.24"><path d="M482.873,478.379c33.637,9.438 69.595,-5.455 78.33,-42.181c2.089,-8.789 1.64,-17.93 1.027,-26.864c-6.028,27.849 -22.951,57.759 -50.449,68.092c-9.938,3.737 -18.376,4.755 -28.908,2.777" style="fill:#030405;fill-rule:nonzero;"/></g><g opacity="0.24"><path d="M140.847,406.325c3.014,13.827 8.846,18.192 21.452,22.641c8.097,2.859 17.678,11.54 25.049,16.291c9.549,6.158 9.338,14.489 13.108,24.431c4.549,12.003 7.375,16.815 -9.349,14.938c8.458,-20.194 -13.157,-9.569 -21.793,-6.334c-0.086,-4.77 3.135,-8.35 2.408,-13.458c-11.344,-1.195 -17.579,11.575 -28.955,11.534c1.543,-2.923 3.681,-5.959 5.284,-8.799c-11.986,-0.913 -22.873,-5.257 -28.955,-16.301c9.56,-10.355 33.665,-16.658 47.253,-13.595c4.597,1.035 11.597,8.985 15.196,4.293c5.006,-6.528 -7.75,-18.044 -12.096,-20.809c-6.876,-4.373 -24.829,-13.775 -29.514,-14.832" style="fill:#030405;fill-rule:nonzero;"/></g><g opacity="0.24"><path d="M95.244,213.879c-0.267,0.602 -0.47,1.249 -0.716,1.869c0.545,-0.319 1.058,-0.647 1.628,-0.957l-0.912,-0.912Z" style="fill:#030405;fill-rule:nonzero;"/><path d="M174.455,418.959c-0.63,-7.465 -3.766,-17.67 -6.373,-24.769c-3.093,-8.426 -10.411,-12.932 -14.07,-20.679c-4.2,-8.885 0.92,-18.161 -1.328,-26.39c-1.326,-4.862 -7.098,-8.811 -12.913,-12.28c-0.662,-0.664 -1.318,-1.314 -1.937,-1.941c-10.475,-10.559 -20.9,-22.481 -29.436,-34.676c-14.657,-20.946 -23.497,-58.211 -13.87,-82.477c-17.005,9.965 -20.475,23.983 -17.191,43.459c5.089,30.15 13.094,63.217 25.702,91.088c10.333,22.836 26.294,44.251 47.421,57.855c7.111,6.31 15.787,10.946 23.995,10.81" style="fill:#030405;fill-rule:nonzero;"/></g><g opacity="0.24"><path d="M724.571,282.595c0.003,0.121 -0.021,0.239 -0.021,0.362c0.009,0.126 0.006,0.247 0.021,0.376c0.044,1.342 -0.015,-0.754 0,-0.738" style="fill:#030405;fill-rule:nonzero;"/><path d="M695.982,210.227c-0.142,-0.589 -0.221,-1.085 -0.271,-1.536l-3.061,2.452c0.44,-0.39 2.549,-0.378 3.332,-0.916" style="fill:#030405;fill-rule:nonzero;"/><path d="M726.68,259.531c-2.627,-7.604 -8.328,-14.298 -10.891,-22.136c-2.66,-8.135 -2.739,-15.041 -7.815,-22.277c-1.991,-2.839 -13.065,-13.888 -12.262,-6.427l1.499,-1.197c0.889,28.233 11.129,62.175 -10.39,86.099c-4.98,5.542 -11.428,9.725 -16.58,15.165c1.131,0.653 2.287,2.038 3.187,2.459c-3.473,1.961 -7.47,3.313 -11.464,3.124c1.109,1.014 1.883,3.207 3.003,4.269c-3.334,1.089 -7.22,1.649 -10.375,0.294c-3.519,3.321 -7.259,5.678 -9.25,9.898c-2.997,1.926 -5.806,3.863 -6.68,5.464c-2.329,4.258 0.774,10.85 0.98,15.339c0.463,10.205 -1.851,21.111 -6.162,30.267c17.484,9.105 37.71,-5.499 52.749,-22.396c9.921,-6.455 18.392,-17.433 17.474,-24.048c0.681,-1.182 1.306,-2.318 1.848,-3.371c4.569,-8.866 14.49,-11.964 15.417,-22.83c-0.707,0.589 -1.249,1.453 -1.912,2.098c-0.769,-9.093 5.504,-17.242 5.495,-26.368c-0.756,-8.842 5.326,-14.184 2.129,-23.426" style="fill:#030405;fill-rule:nonzero;"/></g><g opacity="0.24"><path d="M554.301,320.867c-5.487,-4.856 -11.104,-9.151 -20.669,-11.28c-12.338,-2.747 -26.96,-5.116 -38.76,0.833c1.882,-3.374 4.739,-6.308 7.729,-9.048c-17.707,5.061 -33.017,4.251 -46.219,18.896c-0.511,-5.193 0.512,-10.42 2.642,-15.046c-11.913,3.804 -19.723,13.745 -28.866,21.73c0.693,-7.617 -3.682,-17.673 -6.547,-24.28c-6.609,10.1 -16.81,17.366 -23.655,27.533c-8.938,-14.355 -23.93,-26.499 -38.024,-30.678c0.373,0.725 0.549,1.518 0.691,2.316c-0.984,5.298 -1.53,10.564 -2.609,15.739c-8.527,-13.831 -28.965,-23.055 -42.997,-27.865c1.349,4.413 2.542,8.859 3.367,13.104c-14.263,-11.438 -30.007,-14.146 -48.989,-13.083c2.586,4.34 7.179,9.744 11.419,13.568c-5.224,-0.089 -41.19,-2.307 -29.005,10.668c-9.032,4.075 -18.925,12.082 -23.69,21.227c0.432,1.717 0.895,0.167 1.935,0.895l3.648,-1.824c-3.085,-4.124 30.848,-11.811 36.37,-13.884c-3.463,-4.071 -8.509,-6.839 -13.243,-8.965c13.577,-2.007 26.88,0.287 39.537,1.734c-0.881,-0.732 -1.733,-1.614 -2.574,-2.553c1.521,-0.027 3.058,-0.112 4.597,-0.181c-0.278,-0.345 -0.63,-0.713 -1.02,-1.095c-0.663,-2.291 -3.434,-4.729 -6.014,-5.587c-1.781,-2.771 -4.297,-5.587 -6.734,-7.423c-0.669,-1.308 -1.311,-2.584 -1.88,-3.763c13.716,10.533 30.405,22.805 45.889,30.428c-0.022,-0.791 -0.022,-1.598 -0.009,-2.416c1.375,0.55 2.833,0.852 4.361,0.795c0.328,-1.712 0.343,-3.619 0.094,-5.553l10.742,3.417c2.718,2.287 5.404,4.578 7.956,6.94c6.394,5.907 12.425,15.178 20.628,18.71c-0.115,-0.648 -0.257,-1.293 -0.382,-1.94c0.93,1.211 1.949,2.252 3.118,2.874c-0.04,-10.16 -4.264,-19.957 -4.44,-29.684c0.52,0.41 1.006,0.845 1.51,1.26c6.072,6.686 15.813,18.611 22.054,26.884c3.193,5.974 6.855,12.147 11.685,13.596c0.024,-0.255 -0.005,-0.515 0.009,-0.769c0.135,0.525 0.255,1.033 0.355,1.506c3.692,-8.989 9.593,-17.96 10.874,-27.907c3.598,4.323 3.774,14.545 3.499,21.038c4.664,-5.786 9.378,-12.784 14.686,-17.929c11.607,-11.261 11.024,5.964 7.109,14.741c11.574,-15.442 22.088,-22.626 39.189,-31.51c-0.488,0.797 -0.93,1.611 -1.356,2.431c-0.041,-0.294 -0.132,-0.547 -0.351,-0.701l-1.859,2.482c0.611,-0.672 1.35,-1.246 2.186,-1.735c-2.496,4.82 -4.184,9.945 -7.686,14.436c0.508,-0.78 1.129,-1.532 1.795,-2.268c-0.784,1.536 -1.396,2.961 -1.59,4.094c6.221,-3.326 11.771,-7.717 17.95,-11.043c3.798,-2.043 7.589,-2.674 9.889,-5.755c17.045,-3.915 37.638,-3.78 51.655,1.89" style="fill:#030405;fill-rule:nonzero;"/><path d="M554.301,320.867c4.226,3.739 8.372,7.811 14.193,11.49c-2.666,-5.111 -7.739,-8.879 -14.193,-11.49" style="fill:#030405;fill-rule:nonzero;"/><path d="M479.225,322.415l0.877,-1.167c-0.327,0.36 -0.623,0.747 -0.877,1.167" style="fill:#030405;fill-rule:nonzero;"/></g><g opacity="0.24"><path d="M326.91,142.737c2.559,0.597 5.059,1.302 7.532,2.053l-7.532,-2.053Zm42.296,16.811c15.709,7.854 17.694,19.737 27.733,32.325c3.535,-6.83 1.788,-12.637 6.535,-19.01c3.544,-4.758 8.227,-8.486 12.683,-12.111c-0.449,-0.494 -0.934,-0.985 -1.397,-1.48c3.926,-2.674 7.375,-6.962 8.915,-11.199c0.469,-0.365 0.777,-0.64 0.827,-0.776l-0.668,0.335c0.04,-0.112 0.087,-0.224 0.119,-0.335c27.041,-14.581 52.757,-26.984 82.271,-7.612c6.728,4.411 13.281,9.071 19.517,14.152c-19.21,-42.845 -57.198,-49.912 -97.271,-30.974c-8.112,3.838 -14.256,4.564 -22.98,1.77c1.015,8.716 1.604,17.578 -7.012,19.635c-17.639,-13.769 -39.461,-22.892 -61.508,-13.478c-6.633,2.833 -11.408,7.712 -15.44,13.585c4.563,0.166 12.191,1.16 15.113,1.099c11.236,3.633 21.776,8.68 32.563,14.075" style="fill:#030405;fill-rule:nonzero;"/><path d="M247.339,216.56l-0.293,-0.073c0.14,-0.045 0.257,-0.095 0.4,-0.139c-0.04,0.067 -0.072,0.143 -0.107,0.212m18.462,0.055c-0.499,-0.495 -0.798,-1.326 -0.969,-2.366c0.007,-0.012 0.007,-0.025 0.007,-0.037l0.962,2.403Zm40.266,-68.402c-0.1,0 -0.185,0.009 -0.285,0.009c0.214,-0.208 0.346,-0.265 0.285,-0.009m-81.487,101.851c0.113,-16.718 6.42,-28.684 22.68,-33.353c-3.698,6.925 -4.008,17.871 3.777,19.849c0.235,3.411 2.152,5.197 7.275,2.494c0.777,-0.412 1.45,-0.964 2.045,-1.602c0.406,2.758 0.384,5.513 -0.228,8.002c-5.373,4.652 -13.136,7.204 -19.745,6.869c5.668,14.594 21.505,6.062 27.178,-5.033c3.377,-5.404 3.369,-13.15 0.676,-21.704l0.299,0.15c-0.15,-0.517 -0.403,-0.905 -0.67,-1.272c-0.15,-0.451 -0.278,-0.893 -0.449,-1.347c-0.378,-0.069 -0.633,-0.052 -0.862,0.002c0.378,-3.739 0.175,-7.651 0.02,-10.927c-0.43,-0.107 -0.818,-0.103 -1.203,-0.092c0.82,-3.163 1.418,-6.261 1.738,-9.358c0.183,0.586 0.314,1.147 0.514,1.74c-0.122,-3.758 0.6,-7.531 1.874,-11.21c1.03,-0.868 1.995,-1.502 2.818,-1.785c-1.094,0.175 -1.963,0.812 -2.641,1.263c3.005,-8.287 8.827,-16.056 14.423,-22.001c7.041,-7.479 22.839,-15.303 27.191,-23.293c-3.784,-0.495 -6.49,-1.056 -9.918,-0.158l1.994,0.997c-29.955,0.674 -42.995,17.504 -38.912,43.348c-1.782,2.794 -3.926,5.279 -6.698,6.378c-2.23,-3.44 -4.403,-6.91 -5.344,-10.849c-1.824,-7.656 -0.502,-19.46 1.418,-26.965c-3.691,-0.329 -6.284,1.796 -7.182,5.332l0.912,-1.824c1.221,-0.431 2.333,-1.475 4.492,-0.705c-7.905,3.751 -11.961,11.507 -12.666,19.67c-17.692,4.708 -18.825,24.328 -17.407,40.04c2.729,-10.528 6.241,-21.439 16.221,-27.783c0.802,-0.511 1.535,-0.933 2.227,-1.318c1.454,5.112 4.275,9.691 8.308,12.758c-4.314,4.253 -10.777,6.997 -16.196,10.683c-12.94,5.549 -21.754,23.31 -7.959,33.004" style="fill:#030405;fill-rule:nonzero;"/><path d="M535.62,189.484l-3.496,5.241c2.637,-0.68 3.478,-2.713 3.496,-5.241" style="fill:#030405;fill-rule:nonzero;"/><path d="M493.914,247.801c4.856,5.246 16.8,5.317 23.438,6.983c5.018,-8.816 -2.228,-22.926 6.287,-29.27c13.652,-10.173 14.507,12.404 14.098,20.15c19.106,3.237 4.542,-30.028 3.63,-36.229c8.657,1.041 12.441,13.358 13.736,20.787c12.825,-17.418 -2.512,-48.863 -21.944,-52.735c0.608,3.225 2.487,8.181 2.461,11.997l0.152,-0.232c1.34,17.812 -24.34,54.254 -41.858,58.549" style="fill:#030405;fill-rule:nonzero;"/><path d="M226.254,288.075c-0.72,-1.352 -1.518,-2.674 -2.358,-3.98c2.366,1.813 4.987,3.378 7.88,4.618c-1.888,-0.013 -3.719,-0.259 -5.522,-0.638m-34.089,97.172c2.381,2.091 4.714,4.194 6.941,6.343c-2.33,-2.026 -4.639,-4.165 -6.941,-6.343m429.925,-26.761c-5.1,3.382 -10.367,-0.015 -10.267,-6.544c0.059,-3.676 2.765,-8.59 5.845,-12.724c-9.215,7.099 -25.834,13.14 -27.449,4.323c6.061,-0.074 10.915,-3.848 14.845,-9.118c12.295,-6.244 18.704,-23.344 18.07,-35.649c-1.258,0.219 -0.249,0.791 -0.713,1.751l-0.912,-0.912c-1.7,3.598 -2.959,6.616 -4.522,9.5c-5.061,7.496 -21.537,17.251 -30.911,18.683c-2.397,-10.897 14.114,-19.743 18.093,-29.343c3.401,-8.207 5.681,-20.949 2.568,-29.574c-3.77,7.451 -4.588,14.192 -11.644,19.853c-4.763,3.82 -10.552,6.633 -15.423,10.469c-0.003,-0.018 -0.006,-0.035 -0.01,-0.053c9.705,-7.802 18.286,-28.132 17.066,-40.527c-3.657,5.072 -9.62,8.633 -14.706,12.851c7.46,-9.288 7.515,-21.058 10.386,-32.688c-5.3,8.092 -11.154,14.737 -20.923,16.02c-0.156,-2.428 0.266,-4.951 0.941,-7.438c11.016,-14.156 13.222,-42.822 1.073,-53.639l1.495,0.998c0.798,-3.42 -2.635,-6.383 -6.241,-7.174c-0.058,1.17 -0.064,2.345 -0.058,3.52c-0.029,-1.088 -0.061,-2.023 -0.085,-2.731l0,6.385c0.056,-0.007 0.1,0.014 0.156,0.009c-0.003,-0.189 -0.006,-0.38 -0.006,-0.563c0.006,0.189 0.011,0.376 0.017,0.564c-0.002,0 -0.006,-0.001 -0.011,-0.001c0.199,16.553 -1.15,52.337 -20.284,45.022c-1.69,12.397 -12.464,17.634 -17.124,27.152c-0.756,0.5 -1.51,0.998 -2.308,1.447c-4.796,0.73 -9.363,2.009 -13.179,4.054c-0.082,0.341 -0.199,0.601 -0.311,0.877c-8.536,1.767 -17.642,1.526 -25.659,-0.77c-7.438,-2.13 -11.529,-6.577 -14.877,-12.029c0.527,-1.23 0.914,-2.641 1.111,-4.305c1.918,-16.445 -17.665,-22.867 -33.91,-24.598c10.305,-3.583 21.907,-7.987 33.086,-9.769c11.967,2.322 24.003,9.728 20.519,22.977c7.129,-10.524 10.989,-29.339 -5.059,-33.819c-6.501,-1.815 -15.1,-1.384 -23.857,-0.116c-4.318,-0.077 -8.123,0.287 -10.368,1.039c7.554,-6.529 15.266,-9.854 23.483,-13.535c12.252,-0.737 22.586,4.403 33.921,13.353c-5.661,-14.214 -11.405,-30.303 -28.02,-34.065c-4.452,-1.009 -9.203,-1.269 -14.074,-1.096c0.203,-0.093 0.396,-0.19 0.598,-0.284c1.129,-0.434 2.208,-0.924 3.275,-1.435c4.286,-1.787 8.658,-3.345 12.997,-4.525c10.271,-2.793 21.119,-1.103 31.195,-3.862c-18.177,-14.859 -63.666,-9.644 -86.426,8.068c-6.584,3.103 -12.349,7.904 -16.645,15.083c-9.868,16.481 -3.377,36.985 -12.698,54.065c-2.009,3.684 -10.243,18.236 -15.58,17.953c-6.053,-0.322 -3.003,-9.721 -2.611,-14.415c2.273,-27.127 -0.164,-58.784 -29.414,-70.317c-19.446,-7.669 -40.704,-2.324 -58.502,6.958c2.038,-0.352 4.053,-0.659 6.05,-0.938c-10.731,7.282 -16.84,20.053 -19.138,35.259c10.987,-33.202 47.121,-41.211 72.644,-25.015c3.553,2.767 6.94,6.082 10.134,10.095c11.086,13.939 19.381,45.422 -3.109,54.273c10.868,-27.482 -26.244,-60.721 -52.232,-53.464c14.161,6.272 30.443,8.162 36.08,25.203c1.403,4.244 2.928,13.099 1.853,19.69c-3.821,-5.065 -9.806,-10.045 -15.705,-12.885c-7.119,-5.93 -16.354,-8.637 -26.394,-4.972c-5.472,1.997 -9.598,6.324 -12.148,11.521c-2.331,2.185 -4.34,5.016 -5.95,8.568c-4.804,10.615 -11.07,18.694 -22.947,20.728c-0.832,0.025 -1.665,0.058 -2.495,0.059c-1.108,-0.136 -2.195,-0.146 -3.267,-0.082c-16.774,-0.616 -32.372,-6.502 -34.837,-26.671c-2.22,5.257 -2.74,10.154 -2.01,14.627c-1.663,-1.432 -3.203,-2.722 -4.193,-3.661c-1.578,2.626 -1.122,5.788 0.509,8.874c-5.942,-4.269 -11.849,-12.725 -13.524,-16.256c0.267,6.949 1.796,13.832 4.618,20.006c-5.092,-6.022 -10.119,-12.139 -13.489,-19.076c-0.032,0.709 -0.093,1.874 -0.185,2.6c-5.038,-8.329 3.427,-22.913 0,-31.15l0.911,-0.913c1.49,-1.46 2.623,-1.571 2.573,-3.536c-18.178,10.602 -18.195,34.346 -8.33,51.652c-2.294,-1.589 -4.581,-3.051 -6.89,-4.241c2.323,12.831 13.41,28.606 26.453,35.152c-16.143,-6.392 -29.745,-19.774 -41.029,-32.231c-3.433,19.027 23.052,32.883 29.796,46.121c-11.494,-8.696 -32.143,-19.211 -36.333,-34.268c3.513,12.682 13.417,23.483 19.004,34.289c-6.716,-6.624 -13.995,-13.573 -20.665,-20.584c3.55,8.614 8.06,20.017 14.762,26.943c-6.717,-7.569 -16.678,-19.957 -22.45,-29.902c-8.394,6.735 6.107,32.503 11.69,38.839c7.407,8.409 14.852,15.537 23.318,22.766c-9.58,-7.424 -20.222,-15.697 -30.269,-22.593c-5.102,4.322 -1.946,11.093 3.773,17.654c-3.085,-2.308 -6.239,-4.49 -9.516,-6.412c2.544,8.767 7.143,16.069 12.733,22.587c-4.771,-4.021 -9.698,-7.75 -14.95,-10.802c-2.058,17.609 31.474,41.655 45.33,46.628c-0.025,0.636 -0.638,3.459 -0.959,4.217c-15.832,2.243 -34.893,-20.012 -40.993,-31.555c0.093,9.364 6.859,21.181 12.327,28.581c5.633,7.62 16.438,10.088 21.391,17.59c-6.028,-2.297 -9.349,-10.962 -16.182,-10.669c1.425,8.762 5.351,14.985 11.6,21.589c-4.659,-3.096 -9.78,-8.621 -14.294,-10.689c0.745,7.27 6.627,21.217 14.273,23.479c9.587,-12.734 11.212,-23.206 14.696,-38.64c3.389,-15.015 1.707,-24.568 0.147,-39.397c-1.675,-15.962 3.773,-23.235 15.911,-31.849c5.551,-3.94 11.394,-5.462 17.015,-8.982c8.312,-5.2 5.423,-13.135 10.953,-19.016c0.185,-0.199 0.42,-0.327 0.623,-0.504c1.928,-0.016 3.859,-0.586 5.693,-1.518c-1.671,0.392 -3.263,0.825 -4.685,1.388l-0.848,0c2.163,-1.795 5.059,-2.492 8.131,-2.985c-0.834,0.615 -1.703,1.143 -2.598,1.597c4.579,-1.076 9.788,-1.868 14.045,-4.113c4.572,-1.267 9.01,-2.523 11.141,-7.172c0.349,-0.763 0.584,-1.567 0.748,-2.39c2.607,-0.806 3.261,0.039 7.552,0.475c13.832,1.404 28.332,-0.44 40.039,-8.076c8.858,9.013 20.166,11.915 32.186,14.5c21.889,4.706 36.728,-0.883 55.28,-10.963c-0.666,-0.066 -1.307,-0.212 -1.952,-0.37c9.057,-0.283 17.714,0.124 25.93,5.83c25.491,17.704 63.844,15.743 87.928,-4.865c11.438,4.058 24.869,3.825 35.917,7.637c-10.435,7.731 8.374,31.743 17.662,30.725c0.041,5.599 7.452,10.739 9.575,16.839c-5.351,10.29 4.049,31.895 6.663,41.355c5.158,18.637 22.392,8.395 30.132,-3.097c-3.431,-0.288 -6.725,-1.433 -9.874,-3.055c-0.32,-6.616 4.099,-11.597 8.698,-15.735" style="fill:#030405;fill-rule:nonzero;"/><path d="M623.395,332.792c-1.674,1.475 -3.773,3.794 -5.727,6.426c2.818,-2.177 4.954,-4.451 5.727,-6.426" style="fill:#030405;fill-rule:nonzero;"/><path d="M624.377,356.481c-0.754,0.644 -1.521,1.318 -2.287,2.006c0.771,-0.512 1.543,-1.172 2.287,-2.006" style="fill:#030405;fill-rule:nonzero;"/></g><g opacity="0.24"><path d="M292.251,543.136c-3.012,7.418 -6.633,14.58 -11.943,20.979c23.978,26.538 70.137,27.677 101.19,38.441c0.162,5.632 -6.528,10.852 -9.598,15.459c12.573,-2.813 24.681,-8.146 33.49,-18.015c-1.226,5.331 -2.053,11.064 -4.46,16.027c5.728,-6.773 17.155,-8.22 24.18,-14.188c4.518,-3.836 8.195,-8.777 11.981,-13.071c-0.177,9.467 0.695,19.499 1.229,29.033c5.965,-1.625 14.98,-15.808 17.419,-22.396c2.458,4.732 2.573,12.378 7.076,15.106c5.365,-5.443 6.599,-9.719 8.409,-16.936c4.375,7.115 10.202,10.683 17.848,11.513c1.211,-5.722 -1.96,-9.853 -2.494,-15.162c10.304,5.543 25.801,10.338 37.221,6.174c-3.147,-9.651 -17.133,-10.329 -11.169,-20.241c4.482,-7.446 14.131,-13.27 19.207,-21.244c7.161,-11.253 27.889,-33.379 5.895,-39.613c-24.494,22.655 -47.969,50.825 -81.665,59.195c-36.412,9.045 -76.799,-2.719 -111.792,-12.888c-19.247,-5.589 -38.294,-11.863 -57.358,-18.036c-0.228,0.911 0.039,1.7 -0.138,2.599" style="fill:#030405;fill-rule:nonzero;"/></g><g opacity="0.24"><path d="M512.021,878.61c-0.692,-1.874 -1.821,-3.645 -3.325,-5.287c-1.159,-7.482 -8.074,-16.909 -15.099,-23.023c10.573,-3.006 20.5,-4.265 32.308,-0.819c-2.494,9.915 -7.825,21.494 -13.884,29.129m161.749,-1.53c-13.637,-15.479 -43.619,-76.192 -66.578,-73.366c1.322,-17.087 -21.034,-24.726 -34.744,-20.112c8.128,-6.526 9,-11.614 5.459,-15.596c6.399,-3.85 12.057,-9.086 15.63,-15.417c19.091,-5.029 37.019,6.613 54.875,18.291c4.734,-4.972 7.576,-11.371 8.075,-17.823c4.46,3.578 6.967,9.596 7.333,16.083c14.579,-14.803 -28.16,-58.668 -41.991,-65.797c-0.178,-6.687 -4.563,-13.513 -9.299,-17.607c10.565,-0.648 20.662,0.277 30.633,0.919c3.698,0.812 7.352,1.558 10.95,2.089c-1.346,-5.077 -6.185,-10.978 -12.106,-16.725c2.766,-0.698 5.581,-1.267 8.455,-1.503c-1.548,-4.579 -9.132,-6.113 -16.941,-6.107c-2.388,-2.002 -4.774,-3.927 -7.051,-5.714c1.05,-4.768 1.148,-9.541 0.23,-14.059c1.512,-3.876 2.19,-7.802 1.545,-11.037c-3.118,-15.677 -19.519,-16.699 -34.713,-14.449c-0.877,-0.117 -1.713,-0.267 -2.628,-0.352c-30.554,-2.935 -66.027,0.182 -98.546,6.778c-7.605,0.483 -15.185,1.34 -22.731,2.953c-46.396,9.935 -93.958,17.789 -140.839,25.537c-13.094,2.164 -60.198,18.915 -43.229,38.273c0.008,0.032 0.014,0.067 0.029,0.102c-7.083,-1.158 -14.02,-0.179 -17.728,5.335c8.493,4.146 18.152,2.513 25.124,9.176c-8.792,1.486 -19.968,7.369 -23.299,14.675c4.074,-1.085 8.093,-1.325 11.894,-3.555c-25.768,11.56 -39.364,46.619 -23.021,70.636c2.575,-8.769 5.767,-17.049 10.442,-24.669c4.945,10.114 13.054,20.054 22.344,25.538c7.693,-5.489 21.517,-13.674 31.435,-12.456c12.402,1.52 13.604,11.291 25.2,16.224c1.098,0.467 2.237,0.842 3.381,1.211c3.061,2.936 6.973,5.687 10.387,7.602c-10.49,4.488 -17.722,14.353 -22.749,23.812c11.849,9.287 12.426,26.291 22.825,36.301c12.736,12.263 17.438,5.166 33.213,0.265c-3.142,4.559 -5.465,8.357 -6.527,11.766c-8.272,10.892 -15.12,24.918 -14.806,37.036c6.569,-0.851 12.683,1.355 17.507,5.466c10.132,-14.657 16.977,-30.54 28.051,-44.999c15.372,-7.364 35.073,-9.116 49.319,-13.435c2.187,-0.663 4.282,-1.339 6.334,-2.012c4.56,12.34 9.163,27.9 12.277,43.965c0,0.003 0.003,0.006 0.003,0.009l0.004,0c0.013,0.091 0.037,0.175 0.05,0.263c-0.01,0.003 -0.022,0.003 -0.033,0.003c1.227,17.93 -1.479,36.239 -0.331,54.606c1.204,-1.312 2.36,-3.508 3.413,-6.256c-0.121,0.982 -0.249,1.959 -0.399,2.918c-4.175,4.865 -5.364,11.167 -5.514,17.807c-1.034,1.958 -2.222,3.768 -3.543,5.443c-5.706,0.135 -10.886,1.709 -14.562,5.82c1.765,2.549 2.343,6.862 3.556,8.76c-1.014,0.253 -2.041,0.473 -3.067,0.663c-3.24,15.176 2.265,33.581 1.508,49.818c-0.731,15.757 -3.95,33.221 -3.731,49.564c10.383,-9.229 20.989,-10.613 21.57,-26.578c-0.192,9.71 7.505,19.053 13.678,27.736c1.365,4.482 3.067,8.596 5.284,11.924c0.423,-0.053 4.457,-0.018 4.892,0.041c0.317,-6.188 1.207,-12.947 2.234,-20c2.578,-4.495 4.929,-9.161 5.4,-14.701c0.417,-4.944 -0.462,-10.074 -1.452,-15.32c0.167,-1.994 0.313,-3.985 0.404,-5.967c4.408,-17.523 5.173,-38.488 -0.923,-49.743c8.351,-6.792 9.966,-18.835 1.431,-18.346c-0.437,-0.965 -0.957,-1.956 -1.667,-3.021c-6.565,-2.524 -13.697,-8.844 -17.339,-14.536c1.005,-23.294 3.377,-57.232 -3.356,-78.306c2.135,3.229 4.341,6.089 6.57,8.32c0.654,1.091 1.334,2.167 2.075,3.217c0.248,-0.188 0.529,-0.416 0.842,-0.681c0.668,0.471 1.331,0.874 1.994,1.191c3.176,-3.044 5.044,-5.929 5.942,-8.662c9.163,-9.273 21.605,-23.763 23.561,-33.062c1.114,0.527 2.22,1.033 3.374,1.641c2.199,-4.833 1.237,-8.877 -0.173,-12.973c3.015,-3.054 4.425,-8.327 1.947,-15.296c14.214,-3.573 38.473,-5.038 31.743,13.535c3.303,0.655 4.924,2.333 8.49,2.45c11.562,30.103 59.61,57.288 85.815,75.063c-11.674,-13.347 -17.516,-43.873 -25.123,-61.957c9.836,8.073 19.495,18.704 32.012,21.37" style="fill:#030405;fill-rule:nonzero;"/><path d="M486.523,900.665c0.24,-0.05 0.462,-0.044 0.692,-0.067c-0.003,-0.088 -0.017,-0.176 -0.02,-0.267l-0.673,0.334Z" style="fill:#030405;fill-rule:nonzero;"/><path d="M304.107,933.502c-9.798,-2.32 -21.362,-9.273 -29.314,-15.771c0.698,3.266 -0.665,7 -0.185,10.064c-15.598,-5.402 -40.709,-3.379 -51.618,11.549c-3.549,2.905 -6.605,6.814 -7.938,10.343c3.399,-2.942 6.705,-1.997 10.617,-3.417l5.726,-6.868c15.8,-5.686 23.689,-8.305 31.128,12.068c13.038,-3.505 32.962,-8.041 42.817,-16.189c-1.464,-1.246 -2.811,-1.659 -4.315,-1.779l3.082,0Z" style="fill:#030405;fill-rule:nonzero;"/></g><g opacity="0.24"><path d="M290.195,626.851c-1.437,-11.733 -5.362,-26.991 -9.424,-36.091c0.09,-1.528 0.177,-3.057 0.295,-4.632c-0.431,0.976 -0.681,2.18 -0.85,3.471c-0.165,-0.344 -0.329,-0.713 -0.493,-1.034c0.099,6.412 0.029,12.932 0.784,18.99c0.324,8.428 1.453,16.645 3.99,25.359c-2.138,-0.145 -4.902,0.738 -7.018,0.457c6.003,6.694 11.39,13.043 20.362,8.093c-0.446,-1.475 -1.479,-4.278 -2.363,-6.269c-1.76,-2.206 -3.555,-5.063 -5.283,-8.344" style="fill:#030405;fill-rule:nonzero;"/><path d="M294.382,633.128c0.274,0.327 0.67,1.111 1.097,2.066c0.861,1.091 1.724,2.071 2.551,2.797l-3.648,-4.863Z" style="fill:#030405;fill-rule:nonzero;"/></g><g opacity="0.24"><path d="M604.608,595.18c2.81,-4.642 5.114,-9.811 4.493,-15.441c-3.938,1.29 -6.291,2.519 -8.358,6.809c0.185,-7.141 2.297,-17.194 -3.249,-22.282c-7.074,11.986 3.645,24.702 -3.953,37.242l1.216,-10.945c-0.865,5.743 -2.143,10.525 -4.741,15.563c8.434,0.558 18.671,1.382 26.451,-1.153c0.851,-6.975 -5.293,-10.85 -11.859,-9.793" style="fill:#030405;fill-rule:nonzero;"/></g><g opacity="0.24"><path d="M480.443,349.778c-0.445,0.323 -0.892,0.642 -1.304,1c19.62,-15.667 58.743,-7.575 80.32,0.384c5.689,2.095 11.187,4.588 16.962,6.462c-19.28,-22.677 -55.611,-33.31 -82.867,-18.623c-6.932,3.736 -12.419,8.984 -17.365,15.034" style="fill:#030405;fill-rule:nonzero;"/></g></g></svg>